SplineFontDB: 3.0
FontName: Hermit-light
FullName: Hermit Light
FamilyName: Hermit
Weight: Light
Copyright: Created by Pablo Caro <me@pcaro.es> - https://pcaro.es/\n\nUnder OFL 1.1 License.
UComments: "2013-9-8: Created." 

StartChar: a
Encoding: 97 97 0
Width: 557
Flags: W
HStem: 15 75<160.227 419> 220 60<160.282 419> 410 60<178.021 368.52>
VStem: 78 60<109.854 198.154> 419 60<90 220 280 365.183>
LayerCount: 2
Fore
SplineSet
273 220 m 0
 271 220 268 220 265 220 c 0
 220 220 138 218 138 155 c 0
 138 93 210 90 264 90 c 0
 269 90 274 90 278 90 c 0
 419 90 l 1
 419 220 l 1
 273 220 l 0
278 410 m 0
 215 410 173 392 133 374 c 1
 108 418 l 1
 167 446 222 470 278 470 c 0
 467 470 479 331 479 293 c 0
 479 15 l 1
 278 15 l 0
 154 15 78 49 78 148 c 0
 78 261 152 280 278 280 c 0
 419 280 l 1
 419 293 l 0
 419 389 343 410 278 410 c 0
EndSplineSet
Validated: 1
EndChar

StartChar: b
Encoding: 98 98 1
Width: 557
VWidth: 975
Flags: W
HStem: 30 60<138 349.873> 410 90<138 349.873> 730 20G<78 138>
VStem: 78 60<90 410 500 750> 419 60<165.679 337.49>
LayerCount: 2
Fore
SplineSet
278 500 m 0
 474 500 479 273 479 265 c 0
 479 256 474 30 278 30 c 0
 78 30 l 1
 78 750 l 1
 138 750 l 1
 138 500 l 1
 278 500 l 0
138 410 m 1
 138 90 l 1
 278 90 l 0
 419 90 419 250 419 250 c 1
 419 250 418 410 278 410 c 0
 138 410 l 1
EndSplineSet
Validated: 1
EndChar

StartChar: c
Encoding: 99 99 2
Width: 557
Flags: W
HStem: 30 60<206.613 387.918> 410 60<206.613 388.409>
VStem: 78 60<163.444 336.556> 418 61<118.266 154 346 382.139>
LayerCount: 2
Fore
SplineSet
418 154 m 1
 479 154 l 1
 470 30 354 30 278 30 c 0
 161 30 78 107 78 250 c 0
 78 393 161 470 278 470 c 0
 354 470 470 469 479 346 c 1
 418 346 l 1
 405 407 331 410 292 410 c 0
 287 410 283 410 280 410 c 0
 278 410 l 0
 193 410 138 337 138 250 c 0
 138 163 193 90 278 90 c 0
 280 90 l 0
 283 90 286 90 289 90 c 0
 327 90 405 93 418 154 c 1
EndSplineSet
Validated: 1
EndChar

StartChar: d
Encoding: 100 100 3
Width: 557
VWidth: 975
Flags: W
HStem: 30 60<205.557 419> 410 90<205.869 419> 730 20G<419 479>
VStem: 78 60<161.322 338.112> 419 60<90 410 500 750>
LayerCount: 2
Fore
SplineSet
138 250 m 0
 138 246 139 90 278 90 c 2
 419 90 l 1
 419 410 l 1
 278 410 l 2
 139 410 138 254 138 250 c 0
278 30 m 2
 80 30 78 259 78 265 c 0
 78 272 81 500 278 500 c 2
 419 500 l 1
 419 750 l 1
 479 750 l 1
 479 30 l 1
 278 30 l 2
EndSplineSet
Validated: 1
EndChar

StartChar: e
Encoding: 101 101 4
Width: 557
Flags: W
HStem: 30 60<172.584 434> 220 60<138 419> 410 75<174.911 381.717>
VStem: 78 60<125.288 220 280 370.54> 419 60<280 370.54>
LayerCount: 2
Fore
SplineSet
138 293 m 0
 138 280 l 1
 419 280 l 1
 419 293 l 0
 419 406 354 410 278 410 c 0
 202 410 138 405 138 293 c 0
78 250 m 0
 78 479 147 485 258 485 c 0
 264 485 271 485 278 485 c 0
 285 485 292 485 298 485 c 0
 410 485 479 479 479 250 c 0
 479 220 l 1
 138 220 l 1
 138 207 l 0
 138 95 202 90 278 90 c 0
 434 90 l 1
 434 30 l 1
 278 30 l 0
 272 30 266 30 260 30 c 0
 148 30 78 35 78 250 c 0
EndSplineSet
Validated: 1
EndChar

StartChar: f
Encoding: 102 102 5
Width: 557
Flags: W
HStem: 265 60<208 327> 690 60<242.487 403.013>
VStem: 148 60<15 265 325 652.99>
LayerCount: 2
Fore
SplineSet
208 15 m 1
 148 15 l 1
 148 561 l 0
 148 607 148 750 305 750 c 0
 354 750 416 726 473 698 c 1
 448 650 l 1
 406 671 363 690 305 690 c 0
 233 690 208 635 208 560 c 0
 208 325 l 1
 327 325 l 1
 327 265 l 1
 208 265 l 1
 208 15 l 1
EndSplineSet
Validated: 1
EndChar

StartChar: g
Encoding: 103 103 6
Width: 557
Flags: W
HStem: -250 60<177.157 367.214> -0 90<183.047 375.331> 410 60<183.047 373.531>
VStem: 78 60<135.373 363.448> 419 60<-138.135 1 138.329 361.671>
LayerCount: 2
Fore
SplineSet
391 2 m 0
 392 11 l 1
 386 8 356 0 278 0 c 0
 271 0 264 0 258 -0 c 0
 147 0 78 6 78 235 c 0
 78 464 147 470 258 470 c 0
 264 470 271 470 278 470 c 0
 285 470 292 470 298 470 c 0
 410 470 479 464 479 235 c 0
 479 -60 l 0
 479 -101 467 -250 278 -250 c 0
 223 -250 165 -226 108 -198 c 1
 133 -150 l 1
 175 -171 215 -190 278 -190 c 0
 343 -190 419 -168 419 -60 c 0
 419 1 l 1
 391 2 l 0
419 250 m 0
 419 403 356 410 278 410 c 0
 200 410 138 403 138 250 c 0
 138 97 200 90 278 90 c 0
 356 90 419 97 419 250 c 0
EndSplineSet
Validated: 1
EndChar

StartChar: h
Encoding: 104 104 7
Width: 557
VWidth: 975
Flags: W
HStem: 0 21G<78 138 419 479> 410 66<138 350.497> 730 20G<78 138>
VStem: 78 60<0 410 476 750> 419 60<0 329.18>
LayerCount: 2
Fore
SplineSet
479 235 m 1
 479 0 l 1
 419 0 l 1
 419 235 l 1
 419 235 419 410 278 410 c 0
 138 410 l 1
 138 0 l 1
 78 0 l 1
 78 750 l 1
 138 750 l 1
 138 476 l 1
 278 476 l 0
 476 476 479 239 479 235 c 1
EndSplineSet
Validated: 1
EndChar

StartChar: i
Encoding: 105 105 8
Width: 557
Flags: W
HStem: 30 60<78 254 304 479> 410 60<123 254> 600 150<198.73 281.457>
VStem: 174 130<625.349 726> 254 50<90 410>
LayerCount: 2
Fore
SplineSet
123 410 m 1xe8
 123 470 l 1
 304 470 l 1
 304 90 l 1
 479 90 l 1
 479 30 l 1
 78 30 l 1
 78 90 l 1
 254 90 l 1
 254 410 l 1
 123 410 l 1xe8
174 675 m 0xf0
 174 711 210 750 241 750 c 0
 271 750 304 711 304 675 c 0
 304 639 272 600 241 600 c 0
 211 600 174 639 174 675 c 0xf0
EndSplineSet
Validated: 1
EndChar

StartChar: j
Encoding: 106 106 9
Width: 557
Flags: W
HStem: -250 60<163.619 353.628> 410 60<152 404> 600 150<300.299 385.973>
VStem: 279 133<626.723 723.277> 404 60<-138.135 410>
LayerCount: 2
Fore
SplineSet
152 470 m 1xe8
 464 470 l 1
 464 -60 l 0
 464 -101 453 -250 266 -250 c 0
 212 -250 150 -226 93 -198 c 1
 119 -150 l 1
 161 -171 203 -190 266 -190 c 0
 329 -190 404 -168 404 -60 c 0
 404 410 l 1
 152 410 l 1
 152 470 l 1xe8
279 675 m 0xf0
 279 711 310 750 339 750 c 0
 374 750 412 711 412 675 c 0
 412 639 374 600 339 600 c 0
 310 600 279 639 279 675 c 0xf0
EndSplineSet
Validated: 1
EndChar

StartChar: k
Encoding: 107 107 10
Width: 557
Flags: W
HStem: 480 20G<356.5 465> 730 20G<78 138>
VStem: 78 60<96 750>
LayerCount: 2
Fore
SplineSet
313 265 m 1
 465 30 l 1
 393 30 l 1
 280 213 l 1
 270 196 l 0
 237 141 202 85 165 30 c 1
 78 30 l 1
 78 750 l 1
 138 750 l 1
 138 96 l 1
 165 134 l 0
 243 256 320 379 393 500 c 1
 465 500 l 1
 412 425 364 349 318 274 c 0
 313 265 l 1
EndSplineSet
Validated: 1
EndChar

StartChar: l
Encoding: 108 108 11
Width: 557
Flags: W
HStem: 30 60<78 254 304 479> 690 60<174 254>
VStem: 174 130<690 750> 254 50<90 690>
LayerCount: 2
Fore
SplineSet
174 690 m 1xe0
 174 750 l 1
 304 750 l 1xe0
 304 90 l 1
 479 90 l 1
 479 30 l 1
 78 30 l 1
 78 90 l 1
 254 90 l 1
 254 690 l 1xd0
 174 690 l 1xe0
EndSplineSet
Validated: 1
EndChar

StartChar: m
Encoding: 109 109 12
Width: 527
Flags: W
HStem: 0 21G<78 138 234 294 389 449> 410 60<156.577 234 294 373.99>
VStem: 78 60<0 391.894> 234 60<0 410> 389 60<0 393.363>
LayerCount: 2
Fore
SplineSet
138 255 m 0
 138 0 l 1
 78 0 l 1
 78 255 l 0
 78 280 78 302 78 321 c 0
 78 463 85 470 212 470 c 0
 227 470 244 470 263 470 c 0
 282 470 299 470 314 470 c 0
 442 470 449 462 449 316 c 0
 449 298 449 278 449 255 c 0
 449 0 l 1
 389 0 l 1
 389 263 l 0
 389 396 382 410 306 410 c 0
 294 410 l 1
 294 0 l 1
 234 0 l 1
 234 410 l 1
 222 410 l 0
 145 408 138 396 138 255 c 0
EndSplineSet
Validated: 1
EndChar

StartChar: n
Encoding: 110 110 13
Width: 557
Flags: W
HStem: 0 21G<78 138 419 479> 410 60<162.824 350.808>
VStem: 78 60<0 384.964> 419 60<0 339.202>
LayerCount: 2
Fore
SplineSet
138 255 m 0
 138 0 l 1
 78 0 l 1
 78 255 l 0
 78 278 78 299 78 317 c 0
 78 462 85 470 223 470 c 0
 239 470 258 470 278 470 c 0
 477 470 479 259 479 255 c 1
 479 0 l 1
 419 0 l 1
 419 255 l 1
 419 255 418 410 278 410 c 0
 148 410 138 398 138 255 c 0
EndSplineSet
Validated: 1
EndChar

StartChar: o
Encoding: 111 111 14
Width: 557
Flags: W
HStem: 15 75<183.047 373.531> 410 75<183.047 373.531>
VStem: 78 60<135.7 364.3> 419 60<137.283 362.717>
LayerCount: 2
Fore
SplineSet
278 485 m 0
 285 485 292 485 298 485 c 0
 410 485 479 479 479 250 c 0
 479 21 410 15 298 15 c 0
 292 15 285 15 278 15 c 0
 271 15 264 15 258 15 c 0
 147 15 78 21 78 250 c 0
 78 479 147 485 258 485 c 0
 264 485 271 485 278 485 c 0
419 250 m 0
 419 403 356 410 278 410 c 0
 200 410 138 403 138 250 c 0
 138 97 200 90 278 90 c 0
 356 90 419 97 419 250 c 0
EndSplineSet
Validated: 1
EndChar

StartChar: p
Encoding: 112 112 15
Width: 557
VWidth: 975
Flags: W
HStem: 0 90<138 349.873> 410 60<138 349.873>
VStem: 78 60<-250 0 90 410> 419 60<162.51 333.906>
LayerCount: 2
Fore
SplineSet
278 470 m 0
 474 470 479 243 479 235 c 0
 479 226 474 0 278 0 c 0
 138 0 l 1
 138 -250 l 1
 78 -250 l 1
 78 470 l 1
 278 470 l 0
419 250 m 1
 419 250 418 410 278 410 c 0
 138 410 l 1
 138 90 l 1
 278 90 l 0
 419 90 419 250 419 250 c 1
EndSplineSet
Validated: 1
EndChar

StartChar: q
Encoding: 113 113 16
Width: 557
VWidth: 975
Flags: W
HStem: 0 90<205.557 419> 410 60<205.869 419>
VStem: 78 60<162.109 338.881> 419 60<-250 0 90 410>
LayerCount: 2
Fore
SplineSet
419 90 m 1
 419 410 l 1
 278 410 l 2
 139 410 138 254 138 250 c 0
 138 246 139 90 278 90 c 2
 419 90 l 1
278 0 m 2
 80 0 78 229 78 235 c 0
 78 242 81 470 278 470 c 2
 479 470 l 1
 479 -250 l 1
 419 -250 l 1
 419 0 l 1
 278 0 l 2
EndSplineSet
Validated: 1
EndChar

StartChar: r
Encoding: 114 114 17
Width: 557
Flags: W
HStem: 0 21G<78 138> 410 60<165.37 384.507>
VStem: 78 60<0 379.868> 418 61<340 377.901>
LayerCount: 2
Fore
SplineSet
278 410 m 0
 149 410 138 397 138 235 c 2
 138 0 l 1
 78 0 l 1
 78 235 l 0
 78 258 78 279 78 298 c 0
 78 462 85 470 227 470 c 0
 242 470 259 470 278 470 c 0
 354 470 470 469 479 340 c 1
 418 340 l 1
 405 407 329 410 291 410 c 0
 287 410 283 410 280 410 c 0
 278 410 l 0
EndSplineSet
Validated: 1
EndChar

StartChar: s
Encoding: 115 115 18
Width: 557
Flags: W
HStem: 30 60<158.438 399.752> 220 60<155.836 400.571> 410 60<156.564 397.901>
VStem: 78 60<110.536 144 300.05 390.238> 419 60<109.762 199.95 356 389.464>
CounterMasks: 1 e0
LayerCount: 2
Fore
SplineSet
419 155 m 0
 419 220 352 220 286 220 c 2
 275 220 l 0
 181 220 78 220 78 342 c 0
 78 469 149 470 272 470 c 0
 278 470 l 0
 401 470 473 470 479 356 c 1
 418 356 l 1
 408 408 354 410 296 410 c 0
 290 410 284 410 278 410 c 0
 274 410 270 410 266 410 c 0
 199 410 138 408 138 345 c 0
 138 280 204 280 270 280 c 0
 281 280 l 0
 375 280 479 280 479 158 c 0
 479 31 407 30 284 30 c 0
 282 30 280 30 278 30 c 0
 155 30 84 30 78 144 c 1
 139 144 l 1
 148 92 202 90 260 90 c 0
 266 90 272 90 278 90 c 0
 282 90 286 90 290 90 c 0
 357 90 419 92 419 155 c 0
EndSplineSet
Validated: 1
EndChar

StartChar: t
Encoding: 116 116 19
Width: 557
Flags: W
HStem: 30 60<211.091 401.701> 410 66<162 414> 730 20G<102 162>
VStem: 102 60<137.833 410 476 750>
LayerCount: 2
Fore
SplineSet
414 410 m 1
 162 410 l 1
 162 209 l 0
 162 111 237 90 300 90 c 0
 363 90 408 110 448 130 c 1
 473 82 l 1
 414 54 354 30 300 30 c 0
 113 30 102 179 102 220 c 0
 102 750 l 1
 162 750 l 1
 162 476 l 1
 414 476 l 1
 414 410 l 1
EndSplineSet
Validated: 1
EndChar

StartChar: u
Encoding: 117 117 20
Width: 557
Flags: W
HStem: 30 60<205.246 393.608> 480 20G<78 138 419 479>
VStem: 78 60<160.798 500> 419 60<117.182 500>
LayerCount: 2
Fore
SplineSet
419 245 m 0
 419 500 l 1
 479 500 l 1
 479 245 l 0
 479 224 479 204 479 187 c 0
 479 38 472 30 333 30 c 0
 317 30 298 30 278 30 c 0
 79 30 78 241 78 245 c 1
 78 500 l 1
 138 500 l 1
 138 245 l 0
 138 245 138 90 278 90 c 0
 407 90 419 101 419 245 c 0
EndSplineSet
Validated: 1
EndChar

StartChar: v
Encoding: 118 118 21
Width: 557
Flags: W
LayerCount: 2
Fore
SplineSet
466 485 m 1
 303 15 l 1
 240 15 l 1
 78 485 l 1
 143 485 l 1
 272 86 l 1
 401 485 l 1
 466 485 l 1
EndSplineSet
Validated: 1
EndChar

StartChar: w
Encoding: 119 119 22
Width: 557
Flags: W
LayerCount: 2
Fore
SplineSet
139 485 m 1
 178 140 l 1
 248 370 l 1
 306 370 l 1
 376 139 l 1
 415 485 l 1
 475 485 l 1
 422 15 l 1
 356 15 l 1
 276 284 l 1
 198 15 l 1
 132 15 l 1
 78 485 l 1
 139 485 l 1
EndSplineSet
Validated: 1
EndChar

StartChar: x
Encoding: 120 120 23
Width: 557
Flags: W
LayerCount: 2
Fore
SplineSet
78 15 m 1
 235 250 l 1
 78 485 l 1
 151 485 l 1
 264 302 l 1
 379 485 l 1
 451 485 l 1
 295 250 l 1
 451 15 l 1
 379 15 l 1
 264 198 l 1
 151 15 l 1
 78 15 l 1
EndSplineSet
Validated: 1
EndChar

StartChar: y
Encoding: 121 121 24
Width: 557
Flags: W
LayerCount: 2
Fore
SplineSet
170 -250 m 1
 245 -15 l 1
 78 470 l 1
 143 470 l 1
 272 71 l 1
 401 470 l 1
 466 470 l 1
 300 -10 l 0
 226 -250 l 1
 170 -250 l 1
EndSplineSet
Validated: 1
EndChar

StartChar: z
Encoding: 122 122 25
Width: 557
Flags: W
HStem: 30 60<206 479> 410 60<78 351>
LayerCount: 2
Fore
SplineSet
220 112 m 0
 206 90 l 1
 479 90 l 1
 479 30 l 1
 92 30 l 1
 184 151 261 269 337 388 c 0
 351 410 l 1
 78 410 l 1
 78 470 l 1
 465 470 l 1
 373 349 296 231 220 112 c 0
EndSplineSet
Validated: 1
EndChar

StartChar: braceleft
Encoding: 123 123 26
Width: 617
Flags: W
HStem: -75 60<368.753 485> 300 60<132 250.079> 675 60<369.197 485>
VStem: 279 60<13.0907 270.145 389.001 643.031>
CounterMasks: 1 e0
LayerCount: 2
Fore
SplineSet
132 300 m 1
 132 360 l 1
 269 360 279 379 279 518 c 0
 279 734 351 735 485 735 c 1
 485 675 l 1
 349 675 339 657 339 518 c 0
 339 419 338 364 323 337 c 0
 319 330 l 1
 323 323 l 0
 338 296 339 241 339 142 c 0
 339 2 350 -15 485 -15 c 1
 485 -75 l 1
 350 -75 279 -73 279 142 c 0
 279 282 267 300 132 300 c 1
EndSplineSet
Validated: 1
EndChar

StartChar: braceright
Encoding: 125 125 27
Width: 617
Flags: W
HStem: -75 60<132 248.076> 300 60<366.945 485> 675 60<132 248.52>
VStem: 279 60<16.9688 272.106 388.614 642.609>
CounterMasks: 1 e0
LayerCount: 2
Fore
SplineSet
485 300 m 1
 348 300 339 281 339 142 c 0
 339 -74 266 -75 132 -75 c 1
 132 -15 l 1
 268 -15 279 3 279 142 c 0
 279 170 l 0
 279 251 281 298 294 323 c 0
 298 330 l 1
 294 337 l 0
 281 362 279 409 279 490 c 0
 279 518 l 0
 279 658 267 675 132 675 c 1
 132 735 l 1
 267 735 339 733 339 518 c 0
 339 378 349 360 485 360 c 1
 485 300 l 1
EndSplineSet
Validated: 1
EndChar

StartChar: bracketleft
Encoding: 91 91 28
Width: 617
Flags: W
HStem: -75 60<192 485> 675 60<192 485>
VStem: 132 60<-15 675>
LayerCount: 2
Fore
SplineSet
132 735 m 1
 485 735 l 1
 485 675 l 1
 192 675 l 1
 192 -15 l 1
 485 -15 l 1
 485 -75 l 1
 132 -75 l 1
 132 735 l 1
EndSplineSet
Validated: 1
EndChar

StartChar: bracketright
Encoding: 93 93 29
Width: 617
Flags: W
HStem: -75 60<132 425> 675 60<132 425>
VStem: 425 60<-15 675>
LayerCount: 2
Fore
SplineSet
485 735 m 1
 485 -75 l 1
 132 -75 l 1
 132 -15 l 1
 425 -15 l 1
 425 675 l 1
 132 675 l 1
 132 735 l 1
 485 735 l 1
EndSplineSet
Validated: 1
EndChar

StartChar: quotesingle
Encoding: 39 39 31
Width: 617
Flags: W
HStem: 425 310<296.137 320.516>
VStem: 279 60<446.475 731.919>
LayerCount: 2
Fore
SplineSet
339 672 m 0
 339 570 329 425 308 425 c 0
 289 425 279 556 279 660 c 0
 279 672 l 0
 279 684 284 735 308 735 c 0
 334 735 339 678 339 672 c 0
EndSplineSet
Validated: 1
EndChar

StartChar: parenleft
Encoding: 40 40 32
Width: 617
Flags: W
HStem: -75 60<388.617 485> 675 60<382.16 485>
VStem: 132 61<201.209 457.124>
LayerCount: 2
Fore
SplineSet
485 -15 m 1
 485 -75 l 1
 134 -63 132 324 132 330 c 0
 132 338 135 723 485 735 c 1
 485 675 l 1
 195 663 193 341 193 330 c 0
 193 327 193 -3 485 -15 c 1
EndSplineSet
Validated: 1
EndChar

StartChar: parenright
Encoding: 41 41 33
Width: 617
Flags: W
HStem: -75 60<132 234.84> 675 60<132 228.383>
VStem: 424 61<202.876 458.791>
LayerCount: 2
Fore
SplineSet
132 -15 m 1
 422 -3 424 319 424 330 c 0
 424 333 424 663 132 675 c 1
 132 735 l 1
 483 723 485 336 485 330 c 0
 485 322 482 -63 132 -75 c 1
 132 -15 l 1
EndSplineSet
Validated: 1
EndChar

StartChar: asterisk
Encoding: 42 42 34
Width: 617
Flags: W
VStem: 279 60<95 272 388 565>
LayerCount: 2
Fore
SplineSet
99 441 m 1
 134 489 l 1
 279 388 l 1
 279 565 l 1
 339 565 l 1
 339 388 l 1
 484 489 l 1
 518 442 l 1
 360 330 l 1
 518 218 l 1
 484 171 l 1
 339 272 l 1
 339 95 l 1
 279 95 l 1
 279 272 l 1
 134 171 l 1
 99 219 l 1
 256 330 l 1
 99 441 l 1
EndSplineSet
Validated: 1
EndChar

StartChar: plus
Encoding: 43 43 35
Width: 617
Flags: W
HStem: 300 60<93 279 339 524>
VStem: 279 60<95 300 360 565>
LayerCount: 2
Fore
SplineSet
524 360 m 1
 524 300 l 1
 339 300 l 1
 339 95 l 1
 279 95 l 1
 279 300 l 1
 93 300 l 1
 93 360 l 1
 279 360 l 1
 279 565 l 1
 339 565 l 1
 339 360 l 1
 524 360 l 1
EndSplineSet
Validated: 1
EndChar

StartChar: hyphen
Encoding: 45 45 36
Width: 617
Flags: W
HStem: 300 60<93 524>
LayerCount: 2
Fore
SplineSet
93 360 m 1
 524 360 l 1
 524 300 l 1
 93 300 l 1
 93 360 l 1
EndSplineSet
Validated: 1
EndChar

StartChar: period
Encoding: 46 46 37
Width: 617
Flags: W
HStem: 15 150<260.177 356.277>
VStem: 234 149<41.7233 138.277>
LayerCount: 2
Fore
SplineSet
308 165 m 0
 344 165 383 126 383 90 c 0
 383 54 344 15 308 15 c 0
 272 15 234 54 234 90 c 0
 234 126 272 165 308 165 c 0
EndSplineSet
Validated: 1
EndChar

StartChar: B
Encoding: 66 66 39
Width: 557
Flags: W
HStem: 15 75<138 349.873> 401 37<138 333.5> 660 75<138 334.368>
VStem: 78 60<90 401 438 660> 374 60<476.97 622.42> 419 60<163.486 323.5>
LayerCount: 2
Fore
SplineSet
138 401 m 1xf4
 138 90 l 1
 278 90 l 0
 418 90 419 246 419 246 c 1
 419 246 418 401 278 401 c 0
 138 401 l 1xf4
278 15 m 0
 78 15 l 1
 78 735 l 1
 278 735 l 0
 432 735 434 561 434 556 c 1xf8
 434 552 431 466 380 438 c 0
 356 425 l 1
 380 412 l 0
 475 360 479 242 479 238 c 1
 479 229 474 15 278 15 c 0
138 438 m 1
 278 438 l 2
 374 438 374 549 374 549 c 0
 374 549 374 660 278 660 c 0
 138 660 l 1
 138 438 l 1
EndSplineSet
Validated: 1
EndChar

StartChar: C
Encoding: 67 67 40
Width: 557
Flags: W
HStem: 30 60<212.483 387.918> 660 60<212.483 388.409>
VStem: 78 60<196.808 553.192> 418 61<119.109 156 594 630.726>
LayerCount: 2
Fore
SplineSet
418 156 m 1
 479 156 l 1
 470 30 354 30 278 30 c 0
 164 30 78 104 78 375 c 0
 78 646 164 720 278 720 c 0
 354 720 470 719 479 594 c 1
 418 594 l 1
 405 657 330 660 292 660 c 0
 288 660 283 660 280 660 c 0
 278 660 l 0
 189 660 138 579 138 375 c 0
 138 171 189 90 278 90 c 0
 280 90 l 0
 283 90 286 90 289 90 c 0
 327 90 405 93 418 156 c 1
EndSplineSet
Validated: 1
EndChar

StartChar: D
Encoding: 68 68 41
Width: 557
VWidth: 975
Flags: W
HStem: 15 75<138 335.181> 660 75<138 335.181>
VStem: 78 60<90 660> 419 60<215.36 534.234>
LayerCount: 2
Fore
SplineSet
78 15 m 1
 78 735 l 1
 278 735 l 0
 472 735 479 386 479 375 c 1
 479 363 472 15 278 15 c 0
 78 15 l 1
138 660 m 1
 138 90 l 1
 278 90 l 0
 415 90 419 340 419 372 c 0
 419 375 l 1
 419 375 419 376 419 377 c 0
 419 404 415 660 278 660 c 0
 138 660 l 1
EndSplineSet
Validated: 1
EndChar

StartChar: E
Encoding: 69 69 42
Width: 557
Flags: W
HStem: 30 60<138 479> 345 60<138 304> 660 60<138 479>
VStem: 78 60<90 345 405 660>
CounterMasks: 1 e0
LayerCount: 2
Fore
SplineSet
78 30 m 1
 78 720 l 1
 479 720 l 1
 479 660 l 1
 138 660 l 1
 138 405 l 1
 304 405 l 1
 304 345 l 1
 138 345 l 1
 138 90 l 1
 479 90 l 1
 479 30 l 1
 78 30 l 1
EndSplineSet
Validated: 1
EndChar

StartChar: F
Encoding: 70 70 43
Width: 557
Flags: W
HStem: 345 60<138 304> 660 60<138 479>
VStem: 78 60<15 345 405 660>
LayerCount: 2
Fore
SplineSet
78 15 m 1
 78 720 l 1
 479 720 l 1
 479 660 l 1
 138 660 l 1
 138 405 l 1
 304 405 l 1
 304 345 l 1
 138 345 l 1
 138 15 l 1
 78 15 l 1
EndSplineSet
Validated: 1
EndChar

StartChar: L
Encoding: 76 76 44
Width: 557
Flags: W
HStem: 30 60<138 479> 730 20G<78 138>
VStem: 78 60<90 750>
LayerCount: 2
Fore
SplineSet
78 30 m 1
 78 750 l 1
 138 750 l 1
 138 90 l 1
 479 87 l 1
 479 30 l 1
 78 30 l 1
EndSplineSet
Validated: 1
EndChar

StartChar: T
Encoding: 84 84 45
Width: 557
Flags: W
HStem: 685 50<78 254 304 479>
VStem: 254 50<15 685>
LayerCount: 2
Fore
SplineSet
78 685 m 1
 78 735 l 1
 479 735 l 1
 479 685 l 1
 304 685 l 1
 304 15 l 1
 254 15 l 1
 254 685 l 1
 78 685 l 1
EndSplineSet
Validated: 1
EndChar

StartChar: underscore
Encoding: 95 95 46
Width: 617
Flags: W
HStem: -75 60<93 524>
LayerCount: 2
Fore
SplineSet
93 -15 m 1
 524 -15 l 1
 524 -75 l 1
 93 -75 l 1
 93 -15 l 1
EndSplineSet
Validated: 1
EndChar

StartChar: exclam
Encoding: 33 33 48
Width: 617
VWidth: 0
Flags: W
HStem: -75 150<260.177 356.277>
VStem: 234 149<-48.2767 48.2767> 279 60<265 735>
LayerCount: 2
Fore
SplineSet
308 75 m 0xc0
 344 75 383 36 383 0 c 0
 383 -36 344 -75 308 -75 c 0
 272 -75 234 -36 234 0 c 0
 234 36 272 75 308 75 c 0xc0
279 735 m 1xa0
 339 735 l 1
 339 265 l 1
 279 265 l 1
 279 735 l 1xa0
EndSplineSet
Validated: 1
EndChar

StartChar: numbersign
Encoding: 35 35 49
Width: 617
VWidth: 0
Flags: W
HStem: 175 60<93 183 243 375 434 524> 515 60<93 183 243 375 434 524>
VStem: 183 60<15 175 235 515 575 735> 375 59<15 175 235 515 575 735>
LayerCount: 2
Fore
SplineSet
183 735 m 1
 243 735 l 1
 243 575 l 1
 375 575 l 1
 375 735 l 1
 434 735 l 1
 434 575 l 1
 524 575 l 1
 524 515 l 1
 434 515 l 1
 434 235 l 1
 524 235 l 1
 524 175 l 1
 434 175 l 1
 434 15 l 1
 375 15 l 1
 375 175 l 1
 243 175 l 1
 243 15 l 1
 183 15 l 1
 183 175 l 1
 93 175 l 1
 93 235 l 1
 183 235 l 1
 183 515 l 1
 93 515 l 1
 93 575 l 1
 183 575 l 1
 183 735 l 1
375 515 m 1
 243 515 l 1
 243 235 l 1
 375 235 l 1
 375 515 l 1
EndSplineSet
Validated: 1
EndChar

StartChar: dollar
Encoding: 36 36 50
Width: 557
Flags: W
HStem: 105 60<158.644 254 304 397.756> 345 60<161.209 254 304 395.791> 585 60<159.759 254 304 384.375>
VStem: 78 60<186.626 242 426.969 561.867> 254 50<15 105 165 345 405 585 645 735> 419 60<188.133 323.031 508 548.933>
CounterMasks: 1 e0
LayerCount: 2
Fore
SplineSet
254 645 m 1
 254 735 l 1
 304 735 l 1
 304 645 l 1
 317 645 l 0
 420 643 475 648 479 508 c 1
 418 508 l 1
 411 557 369 583 317 585 c 0
 304 585 l 1
 304 405 l 1
 316 405 l 0
 403 402 479 408 479 257 c 0
 479 100 423 107 317 105 c 0
 304 105 l 1
 304 15 l 1
 254 15 l 1
 254 105 l 1
 241 105 l 0
 138 107 82 102 78 242 c 1
 138 242 l 1
 143 167 193 167 241 165 c 0
 254 165 l 1
 254 345 l 1
 241 345 l 0
 154 348 78 342 78 493 c 0
 78 650 135 643 241 645 c 0
 254 645 l 1
254 585 m 1
 241 585 l 2
 188 583 138 581 138 493 c 0
 138 409 189 407 241 405 c 0
 254 405 l 1
 254 585 l 1
304 165 m 1
 317 165 l 2
 370 167 419 169 419 257 c 0
 419 341 370 343 317 345 c 0
 304 345 l 1
 304 165 l 1
EndSplineSet
Validated: 1
EndChar

StartChar: percent
Encoding: 37 37 51
Width: 557
VWidth: 0
Flags: W
HStem: 15 50<367.696 478.648> 246 50<367.873 478.472> 455 49<76.6068 187.304> 686 49<76.5616 187.127>
VStem: 0 50<532.782 657.624> 211 46<529.173 660.034> 298 46<89.5695 220.884> 505 52<91.5625 218.054>
LayerCount: 2
Fore
SplineSet
257 595 m 0
 257 589 257 455 134 455 c 0
 2 455 0 590 0 595 c 1
 0 601 3 735 134 735 c 0
 256 735 257 599 257 595 c 0
134 686 m 0
 55 686 50 610 50 597 c 2
 50 592 l 0
 50 579 56 504 134 504 c 0
 207 504 211 579 211 592 c 0
 211 597 l 0
 211 610 207 686 134 686 c 0
557 155 m 1
 557 147 554 15 421 15 c 0
 298 15 298 150 298 155 c 0
 298 160 299 296 421 296 c 0
 553 296 557 161 557 155 c 1
421 246 m 0
 348 246 344 171 344 158 c 2
 344 153 l 0
 344 140 348 65 421 65 c 0
 499 65 505 140 505 153 c 0
 505 158 l 0
 505 171 499 246 421 246 c 0
543 735 m 1
 73 15 l 1
 14 15 l 1
 484 735 l 1
 543 735 l 1
EndSplineSet
Validated: 1
EndChar

StartChar: ampersand
Encoding: 38 38 52
Width: 617
VWidth: 975
Flags: W
HStem: 15 60<207.004 413.592> 599 60<191.016 333.297>
VStem: 93 60<126.886 331.995 450.306 562.476> 368 60<515 564.872> 464 60<15 56.6364 167.627 297>
LayerCount: 2
Fore
SplineSet
428 515 m 1
 368 515 l 1
 357 597 280 599 266 599 c 0
 264 599 l 0
 257 599 153 599 153 500 c 0
 153 427 329 317 435 191 c 0
 456 166 l 1
 461 199 l 0
 464 221 464 243 464 262 c 0
 464 297 l 1
 524 297 l 1
 522 224 509 169 489 126 c 0
 486 119 l 1
 490 113 l 0
 508 80 520 47 523 15 c 1
 463 15 l 1
 462 25 461 33 459 42 c 0
 453 65 l 1
 434 49 l 0
 406 25 380 15 354 15 c 0
 131 15 93 58 93 250 c 0
 93 316 117 351 143 375 c 0
 154 385 l 1
 144 396 l 0
 112 432 93 468 93 500 c 1
 93 504 94 659 264 659 c 0
 399 659 423 556 428 515 c 1
183 340 m 2
 160 322 153 299 153 250 c 0
 153 104 182 75 354 75 c 0
 382 75 405 87 421 103 c 0
 429 112 l 1
 422 122 l 0
 368 202 275 272 202 339 c 0
 193 348 l 1
 183 340 l 2
EndSplineSet
Validated: 1
EndChar

StartChar: comma
Encoding: 44 44 53
Width: 617
Flags: W
HStem: 16 149<260.177 316.472>
VStem: 234 149<43.9986 138.277>
LayerCount: 2
Fore
SplineSet
302 16 m 2
 267 21 234 57 234 90 c 0
 234 126 272 165 308 165 c 0
 344 165 383 126 383 90 c 0
 383 -5 344 -127 242 -143 c 1
 265 -118 299 -76 315 -2 c 0
 318 14 l 1
 302 16 l 2
EndSplineSet
Validated: 1
EndChar

StartChar: slash
Encoding: 47 47 54
Width: 617
VWidth: 0
Flags: W
LayerCount: 2
Fore
SplineSet
202 -75 m 1
 138 -75 l 1
 415 735 l 1
 479 735 l 1
 202 -75 l 1
EndSplineSet
Validated: 1
EndChar

StartChar: zero
Encoding: 48 48 55
Width: 557
Flags: W
HStem: 15 75<196.945 359.162> 660 75<196.945 359.162>
VStem: 78 60<190.177 577.14> 419 60<177.657 553.645>
LayerCount: 2
Fore
SplineSet
278 735 m 0
 285 735 292 735 298 735 c 0
 406 735 479 725 479 375 c 0
 479 25 406 15 298 15 c 0
 292 15 285 15 278 15 c 0
 271 15 264 15 258 15 c 0
 150 15 78 25 78 375 c 0
 78 725 150 735 258 735 c 0
 264 735 271 735 278 735 c 0
414 516 m 0
 410 559 l 1
 169 145 l 1
 174 137 l 0
 200 94 231 90 278 90 c 0
 361 90 419 103 419 390 c 0
 419 441 417 482 414 516 c 0
388 605 m 1
 383 613 l 2
 357 655 327 660 278 660 c 0
 195 660 138 647 138 360 c 0
 138 309 140 267 143 233 c 0
 147 189 l 1
 388 605 l 1
EndSplineSet
Validated: 1
EndChar

StartChar: one
Encoding: 49 49 56
Width: 557
VWidth: 0
Flags: W
VStem: 310 60<15 671>
LayerCount: 2
Fore
SplineSet
310 671 m 1
 151 411 l 1
 78 411 l 1
 280 735 l 1
 370 735 l 1
 370 15 l 1
 310 15 l 1
 310 671 l 1
EndSplineSet
Validated: 1
EndChar

StartChar: two
Encoding: 50 50 57
Width: 557
VWidth: 0
Flags: W
HStem: 30 60<162 479> 660 60<193.184 364.521>
VStem: 78 60<508 605.551> 419 60<428.673 605.568>
LayerCount: 2
Fore
SplineSet
196 115 m 0
 162 90 l 1
 479 90 l 1
 479 30 l 1
 78 30 l 1
 78 97 l 1
 124 131 419 370 419 494 c 0
 419 562 415 660 278 660 c 0
 152 660 139 573 138 508 c 1
 78 508 l 1
 78 618 83 720 278 720 c 0
 477 720 479 604 479 500 c 0
 479 498 479 496 479 494 c 0
 479 360 197 116 196 115 c 0
EndSplineSet
Validated: 1
EndChar

StartChar: three
Encoding: 51 51 58
Width: 557
Flags: W
HStem: 30 60<195.047 359.628> 369 58<290 350.169> 660 60<206.541 348.662>
VStem: 78 60<147.648 215> 100 60<557 613.527> 396 59<472.293 612.757> 418 60<148.176 311.954>
LayerCount: 2
Fore
SplineSet
392 388 m 0xec
 422 355 478 336 478 230 c 0
 478 122 395 30 278 30 c 0
 166 30 85 114 78 215 c 1
 138 215 l 1
 144 130 202 90 278 90 c 0
 359 90 418 137 418 230 c 0xf2
 418 318 365 364 290 369 c 1
 290 427 l 1
 349 432 396 473 396 543 c 0
 396 618 342 660 278 660 c 0
 218 660 167 624 160 557 c 1
 100 557 l 1
 106 658 166 720 278 720 c 0
 396 720 455 652 455 543 c 0
 455 468 419 435 392 406 c 0
 384 397 l 1
 392 388 l 0xec
EndSplineSet
Validated: 1
EndChar

StartChar: four
Encoding: 52 52 59
Width: 557
VWidth: 0
Flags: W
HStem: 300 60<150 419>
VStem: 419 60<15 300 360 678>
LayerCount: 2
Fore
SplineSet
390 735 m 1
 479 735 l 1
 479 15 l 1
 419 15 l 1
 419 300 l 1
 78 300 l 1
 78 369 l 1
 390 735 l 1
150 360 m 1
 419 360 l 1
 419 678 l 1
 150 360 l 1
EndSplineSet
Validated: 1
EndChar

StartChar: five
Encoding: 53 53 60
Width: 557
Flags: W
HStem: 30 60<78 353.391> 390 60<138 357.832> 660 60<138 414>
VStem: 78 60<450 660> 419 60<157.136 326.76>
LayerCount: 2
Fore
SplineSet
278 390 m 0
 78 390 l 1
 78 720 l 1
 414 720 l 1
 414 660 l 1
 138 660 l 1
 138 450 l 1
 278 450 l 0
 395 450 479 374 479 241 c 0
 479 132 394 30 278 30 c 0
 78 30 l 1
 78 90 l 1
 278 90 l 0
 361 90 419 152 419 240 c 0
 419 327 371 390 278 390 c 0
EndSplineSet
Validated: 1
EndChar

StartChar: six
Encoding: 54 54 61
Width: 557
Flags: W
HStem: 15 75<200.998 354.997> 390 60<200.136 355.219> 660 60<212.002 357.077>
VStem: 78 60<156.925 324.9 378 551.559> 419 60<155.791 323.968>
LayerCount: 2
Fore
SplineSet
138 240 m 0
 138 148 195 90 278 90 c 0
 360 90 419 147 419 240 c 0
 419 333 361 390 278 390 c 0
 195 390 138 332 138 240 c 0
78 232 m 0
 78 375 l 2
 78 646 164 720 278 720 c 0
 386 720 438 659 446 606 c 1
 384 606 l 1
 374 631 344 660 278 660 c 0
 198 660 145 589 139 415 c 0
 138 378 l 1
 165 404 l 0
 185 424 236 450 278 450 c 0
 395 450 479 366 479 232 c 0
 479 98 395 15 278 15 c 0
 161 15 78 98 78 232 c 0
EndSplineSet
Validated: 1
EndChar

StartChar: seven
Encoding: 55 55 62
Width: 557
VWidth: 0
Flags: W
HStem: 0 21G<87 205.5> 660 60<78 375>
LayerCount: 2
Fore
SplineSet
78 660 m 1
 78 720 l 1
 470 720 l 1
 355 480 257 239 154 0 c 1
 87 0 l 1
 375 660 l 1
 78 660 l 1
EndSplineSet
Validated: 1
EndChar

StartChar: eight
Encoding: 56 56 63
Width: 557
Flags: W
HStem: 15 75<196.372 359.875> 369 60<206.679 349.574> 660 75<207.276 348.916>
VStem: 78 60<147.33 312.16> 100 60<474.203 614.267> 397 59<475.138 612.036> 419 60<147.33 311.939>
LayerCount: 2
Fore
SplineSet
397 544 m 0xec
 397 618 342 660 278 660 c 0
 214 660 160 618 160 544 c 0
 160 470 214 429 278 429 c 0
 342 429 397 470 397 544 c 0xec
393 388 m 0
 423 353 479 334 479 222 c 0
 479 110 395 15 278 15 c 0
 161 15 78 110 78 222 c 0xf2
 78 335 134 353 164 388 c 0
 173 398 l 1
 164 408 l 0
 137 439 100 474 100 552 c 0
 100 665 160 735 278 735 c 0
 396 735 456 665 456 552 c 0
 456 473 420 439 393 408 c 0
 384 398 l 1
 393 388 l 0
419 230 m 0
 419 323 359 369 278 369 c 0
 197 369 138 323 138 230 c 0
 138 137 197 90 278 90 c 0
 359 90 419 137 419 230 c 0
EndSplineSet
Validated: 1
EndChar

StartChar: nine
Encoding: 57 57 64
Width: 557
Flags: W
HStem: 300 60<200.998 356.045> 660 75<200.998 354.997>
VStem: 78 60<426.253 593.988> 419 60<15 372 424.657 593.075>
LayerCount: 2
Fore
SplineSet
419 510 m 0
 419 603 360 660 278 660 c 0
 195 660 138 602 138 510 c 0
 138 418 195 360 278 360 c 0
 361 360 419 417 419 510 c 0
419 372 m 1
 393 347 l 2
 373 327 322 300 278 300 c 0
 161 300 78 384 78 518 c 0
 78 652 161 735 278 735 c 0
 395 735 479 652 479 518 c 0
 479 15 l 1
 419 15 l 1
 419 372 l 1
EndSplineSet
Validated: 1
EndChar

StartChar: less
Encoding: 60 60 67
Width: 617
Flags: W
LayerCount: 2
Fore
SplineSet
132 294 m 1
 132 366 l 1
 485 555 l 1
 485 487 l 1
 192 330 l 1
 485 173 l 1
 485 105 l 1
 132 294 l 1
EndSplineSet
Validated: 1
EndChar

StartChar: greater
Encoding: 62 62 68
Width: 617
Flags: W
LayerCount: 2
Fore
SplineSet
485 294 m 1
 132 105 l 1
 132 173 l 1
 424 330 l 1
 132 487 l 1
 132 555 l 1
 485 366 l 1
 485 294 l 1
EndSplineSet
Validated: 1
EndChar

StartChar: question
Encoding: 63 63 69
Width: 617
Flags: W
HStem: -75 150<260.177 356.277> 390 60<339 427.391> 675 60<189.159 428.973>
VStem: 93 60<577 638.758> 234 149<-48.2767 48.2767> 279 60<265 390> 464 60<483.041 640.058>
LayerCount: 2
Fore
SplineSet
308 75 m 0xfa
 344 75 383 36 383 0 c 0
 383 -36 344 -75 308 -75 c 0
 272 -75 234 -36 234 0 c 0
 234 36 272 75 308 75 c 0xfa
339 390 m 1xf6
 339 265 l 1
 279 265 l 1
 279 450 l 1
 313 450 l 0
 399 450 464 454 464 562 c 0
 464 672 396 675 308 675 c 0
 224 675 159 673 153 577 c 1
 93 577 l 1
 98 731 164 735 289 735 c 0
 295 735 302 735 308 735 c 0
 314 735 320 735 326 735 c 0
 455 735 524 731 524 562 c 0
 524 404 465 392 354 390 c 0
 339 390 l 1xf6
EndSplineSet
Validated: 1
EndChar

StartChar: at
Encoding: 64 64 70
Width: 617
Flags: W
HStem: 15 60<235.074 426.186> 243 60<313.7 464> 447 60<317.279 464> 675 60<235.074 425.939>
VStem: 93 60<188.348 561.652> 234 59<324.331 423.378> 464 60<107.652 145 303 447 507 642.131>
LayerCount: 2
Fore
SplineSet
293 375 m 0
 293 303 357 303 425 303 c 0
 464 303 l 1
 464 447 l 1
 422 447 l 0
 421 447 419 447 418 447 c 0
 367 447 293 446 293 375 c 0
524 145 m 1
 515 15 398 15 308 15 c 0
 179 15 93 93 93 375 c 0
 93 657 179 735 308 735 c 0
 401 735 524 735 524 590 c 0
 524 243 l 1
 428 243 l 0
 290 243 234 274 234 375 c 0
 234 490 289 507 428 507 c 0
 464 507 l 1
 464 590 l 0
 464 672 365 675 319 675 c 0
 316 675 313 675 310 675 c 0
 308 675 l 0
 205 675 153 590 153 375 c 0
 153 160 205 75 308 75 c 0
 310 75 l 0
 313 75 316 75 320 75 c 0
 364 75 450 78 463 145 c 1
 524 145 l 1
EndSplineSet
Validated: 1
EndChar

StartChar: A
Encoding: 65 65 71
Width: 557
Flags: W
HStem: 220 60<204 345>
LayerCount: 2
Fore
SplineSet
244 735 m 1
 304 735 l 1
 471 15 l 1
 409 15 l 1
 359 220 l 1
 189 220 l 1
 140 15 l 1
 78 15 l 1
 244 735 l 1
204 280 m 1
 345 280 l 1
 274 627 l 1
 204 280 l 1
EndSplineSet
Validated: 1
EndChar

StartChar: G
Encoding: 71 71 72
Width: 557
Flags: W
HStem: 15 75<212.483 388.098> 300 60<291 417.828> 660 60<212.483 388.409>
VStem: 78 60<197.057 552.779> 419 60<118.782 297.872 593 630.02>
LayerCount: 2
Fore
SplineSet
291 360 m 1
 404 360 l 2
 409 360 479 358 479 285 c 0
 479 160 l 0
 479 15 356 15 278 15 c 0
 164 15 78 92 78 374 c 0
 78 645 164 720 278 720 c 0
 354 720 470 719 479 593 c 1
 418 593 l 1
 405 657 329 660 291 660 c 0
 287 660 283 660 280 660 c 0
 278 660 l 0
 189 660 138 579 138 375 c 0
 138 171 189 90 278 90 c 0
 280 90 l 0
 282 90 285 90 288 90 c 0
 328 90 419 93 419 169 c 0
 419 300 l 1
 291 300 l 1
 291 360 l 1
EndSplineSet
Validated: 1
EndChar

StartChar: H
Encoding: 72 72 73
Width: 557
Flags: W
HStem: 345 60<138 419>
VStem: 78 60<15 345 405 735> 419 60<15 345 405 735>
LayerCount: 2
Fore
SplineSet
78 15 m 1
 78 735 l 1
 138 735 l 1
 138 405 l 1
 419 405 l 1
 419 735 l 1
 479 735 l 1
 479 15 l 1
 419 15 l 1
 419 345 l 1
 138 345 l 1
 138 15 l 1
 78 15 l 1
EndSplineSet
Validated: 1
EndChar

StartChar: I
Encoding: 73 73 74
Width: 557
Flags: W
HStem: 30 60<98 255 303 460> 660 60<98 255 303 460>
VStem: 255 48<90 660>
LayerCount: 2
Fore
SplineSet
98 720 m 1
 460 720 l 1
 460 660 l 1
 303 660 l 1
 303 90 l 1
 460 90 l 1
 460 30 l 1
 98 30 l 1
 98 90 l 1
 255 90 l 1
 255 660 l 1
 98 660 l 1
 98 720 l 1
EndSplineSet
Validated: 1
EndChar

StartChar: J
Encoding: 74 74 75
Width: 557
Flags: W
HStem: 30 60<182.438 373.109> 660 60<291 419>
VStem: 78 60<139.212 242> 419 60<140.168 660>
LayerCount: 2
Fore
SplineSet
419 256 m 0
 419 660 l 1
 291 660 l 1
 291 720 l 1
 479 720 l 1
 479 256 l 0
 479 36 409 30 298 30 c 0
 291 30 285 30 278 30 c 0
 273 30 267 30 262 30 c 0
 150 30 82 35 78 242 c 1
 138 242 l 1
 142 95 203 90 278 90 c 0
 356 90 419 97 419 256 c 0
EndSplineSet
Validated: 1
EndChar

StartChar: K
Encoding: 75 75 76
Width: 557
VWidth: 0
Flags: W
VStem: 78 60<121 735>
LayerCount: 2
Fore
SplineSet
78 15 m 1
 78 735 l 1
 138 735 l 1
 138 121 l 1
 167 179 l 0
 247 364 321 551 404 735 c 1
 470 735 l 1
 305 375 l 1
 470 15 l 1
 404 15 l 1
 277 307 l 1
 154 15 l 1
 78 15 l 1
EndSplineSet
Validated: 1
EndChar

StartChar: M
Encoding: 77 77 77
Width: 557
VWidth: 0
Flags: W
VStem: 78 60<15 635> 419 60<15 636>
LayerCount: 2
Fore
SplineSet
419 15 m 1
 419 636 l 1
 314 390 l 1
 245 390 l 1
 138 635 l 1
 138 15 l 1
 78 15 l 1
 78 735 l 1
 154 735 l 1
 278 441 l 1
 404 735 l 1
 479 735 l 1
 479 15 l 1
 419 15 l 1
EndSplineSet
Validated: 1
EndChar

StartChar: N
Encoding: 78 78 78
Width: 557
VWidth: 0
Flags: W
VStem: 78 60<15 630> 419 60<121 735>
LayerCount: 2
Fore
SplineSet
419 121 m 1
 419 735 l 1
 479 735 l 1
 479 15 l 1
 404 15 l 1
 321 201 247 385 167 570 c 0
 138 630 l 1
 138 15 l 1
 78 15 l 1
 78 735 l 1
 154 735 l 1
 236 549 309 364 390 179 c 0
 419 121 l 1
EndSplineSet
Validated: 1
EndChar

StartChar: O
Encoding: 79 79 79
Width: 557
Flags: W
HStem: 15 75<196.945 361.855> 660 75<196.945 361.855>
VStem: 78 60<170.888 579.112> 419 60<170.888 579.112>
LayerCount: 2
Fore
SplineSet
278 735 m 0
 285 735 292 735 298 735 c 0
 406 735 479 725 479 375 c 0
 479 25 406 15 298 15 c 0
 292 15 285 15 278 15 c 0
 271 15 264 15 258 15 c 0
 150 15 78 25 78 375 c 0
 78 725 150 735 258 735 c 0
 264 735 271 735 278 735 c 0
419 375 m 0
 419 647 361 660 278 660 c 0
 195 660 138 647 138 375 c 0
 138 103 195 90 278 90 c 0
 361 90 419 103 419 375 c 0
EndSplineSet
Validated: 1
EndChar

StartChar: P
Encoding: 80 80 80
Width: 557
Flags: W
HStem: 345 60<138 356.929> 660 75<138 356.929>
VStem: 78 60<15 345 405 660> 419 60<465.877 600.137>
LayerCount: 2
Fore
SplineSet
138 660 m 1
 138 405 l 1
 278 405 l 0
 416 405 419 531 419 532 c 1
 419 534 415 660 278 660 c 0
 138 660 l 1
78 15 m 1
 78 735 l 1
 278 735 l 0
 475 735 479 547 479 540 c 1
 479 533 475 345 278 345 c 0
 138 345 l 1
 138 15 l 1
 78 15 l 1
EndSplineSet
Validated: 1
EndChar

StartChar: Q
Encoding: 81 81 81
Width: 557
Flags: W
HStem: 29 61<196.945 331.835> 660 89<196.945 361.855>
VStem: 78 60<168.856 581.315> 419 60<243.204 576.326>
LayerCount: 2
Fore
SplineSet
419 375 m 0
 419 647 361 660 278 660 c 0
 195 660 138 647 138 375 c 0
 138 103 195 90 278 90 c 0
 304 90 330 99 350 121 c 0
 357 128 l 1
 353 137 l 0
 322 211 318 216 293 275 c 1
 349 275 l 1
 394 185 l 1
 404 223 l 0
 414 264 419 315 419 375 c 0
375 90 m 1
 360 76 l 2
 332 45 301 29 278 29 c 0
 271 29 264 29 258 29 c 0
 150 29 78 39 78 389 c 0
 78 739 150 749 258 749 c 0
 264 749 271 749 278 749 c 0
 285 749 292 749 298 749 c 0
 406 749 479 739 479 389 c 0
 479 294 454 214 418 152 c 0
 414 145 l 1
 470 29 l 1
 404 29 l 1
 375 90 l 1
EndSplineSet
Validated: 1
EndChar

StartChar: R
Encoding: 82 82 82
Width: 557
Flags: W
HStem: 345 60<138 262> 660 75<138 357.93>
VStem: 78 60<15 345 405 660> 419 60<464.418 599.252>
LayerCount: 2
Fore
SplineSet
78 15 m 1
 78 735 l 1
 278 735 l 0
 478 735 479 543 479 540 c 1
 478 407 354 352 336 352 c 0
 316 352 l 1
 470 15 l 1
 404 15 l 1
 262 345 l 1
 138 345 l 1
 138 15 l 1
 78 15 l 1
138 660 m 1
 138 405 l 1
 278 405 l 0
 416 405 419 531 419 532 c 1
 419 534 415 660 278 660 c 0
 138 660 l 1
EndSplineSet
Validated: 1
EndChar

StartChar: S
Encoding: 83 83 83
Width: 557
Flags: W
HStem: 30 60<169.15 376.835> 367 60<165.524 391.931> 660 60<168.576 392.311>
VStem: 78 60<118.389 176 456.109 628.825> 419 60<136.488 338.355 574 631.292>
LayerCount: 2
Fore
SplineSet
278 367 m 0
 273 367 268 367 263 367 c 0
 148 367 78 371 78 553 c 0
 78 716 147 720 262 720 c 0
 267 720 272 720 278 720 c 0
 397 720 473 692 479 574 c 1
 419 574 l 1
 414 652 363 660 308 660 c 0
 278 660 l 0
 203 660 138 657 138 554 c 0
 138 435 170 427 278 427 c 0
 281 427 l 0
 286 427 291 427 296 427 c 0
 410 427 479 423 479 240 c 0
 479 35 409 30 297 30 c 0
 291 30 284 30 278 30 c 0
 275 30 271 30 268 30 c 0
 151 30 83 32 78 176 c 1
 138 176 l 1
 145 91 208 90 276 90 c 0
 278 90 l 0
 355 90 419 96 419 239 c 0
 419 358 387 367 283 367 c 0
 278 367 l 0
EndSplineSet
Validated: 1
EndChar

StartChar: U
Encoding: 85 85 84
Width: 557
Flags: W
HStem: 30 60<205.246 393.608> 730 20G<78 138 419 479>
VStem: 78 60<160.798 750> 419 60<117.182 750>
LayerCount: 2
Fore
SplineSet
419 245 m 0
 419 750 l 1
 479 750 l 1
 479 245 l 0
 479 224 479 204 479 187 c 0
 479 38 472 30 333 30 c 0
 317 30 298 30 278 30 c 0
 79 30 78 241 78 245 c 1
 78 750 l 1
 138 750 l 1
 138 245 l 0
 138 245 138 90 278 90 c 0
 407 90 419 101 419 245 c 0
EndSplineSet
Validated: 1
EndChar

StartChar: V
Encoding: 86 86 85
Width: 557
Flags: W
LayerCount: 2
Fore
SplineSet
471 735 m 1
 304 15 l 1
 244 15 l 1
 78 735 l 1
 140 735 l 1
 274 123 l 1
 409 735 l 1
 471 735 l 1
EndSplineSet
Validated: 1
EndChar

StartChar: W
Encoding: 87 87 86
Width: 557
Flags: W
LayerCount: 2
Fore
SplineSet
139 735 m 1
 181 181 l 1
 248 485 l 1
 306 485 l 1
 374 179 l 1
 416 735 l 1
 477 735 l 1
 422 15 l 1
 357 15 l 1
 277 383 l 1
 198 15 l 1
 133 15 l 1
 78 735 l 1
 139 735 l 1
EndSplineSet
Validated: 1
EndChar

StartChar: X
Encoding: 88 88 87
Width: 557
VWidth: 0
Flags: W
LayerCount: 2
Fore
SplineSet
269 443 m 1
 395 735 l 1
 461 735 l 1
 297 375 l 1
 461 15 l 1
 395 15 l 1
 269 307 l 1
 145 15 l 1
 78 15 l 1
 242 375 l 1
 78 735 l 1
 145 735 l 1
 269 443 l 1
EndSplineSet
Validated: 1
EndChar

StartChar: Y
Encoding: 89 89 88
Width: 557
Flags: W
VStem: 245 50<15 378>
LayerCount: 2
Fore
SplineSet
245 15 m 1
 245 379 l 1
 78 735 l 1
 144 735 l 1
 269 452 l 1
 393 735 l 1
 461 735 l 1
 295 378 l 1
 295 15 l 1
 245 15 l 1
EndSplineSet
Validated: 1
EndChar

StartChar: Z
Encoding: 90 90 89
Width: 557
VWidth: 0
Flags: W
HStem: 30 60<181 479> 660 60<78 375>
LayerCount: 2
Fore
SplineSet
479 90 m 1
 479 30 l 1
 87 30 l 1
 375 660 l 1
 78 660 l 1
 78 720 l 1
 470 720 l 1
 367 517 278 313 191 110 c 0
 181 90 l 1
 479 90 l 1
EndSplineSet
Validated: 1
EndChar

StartChar: backslash
Encoding: 92 92 90
Width: 617
VWidth: 0
Flags: W
LayerCount: 2
Fore
SplineSet
414 15 m 1
 139 735 l 1
 203 735 l 1
 478 15 l 1
 414 15 l 1
EndSplineSet
Validated: 1
EndChar

StartChar: asciicircum
Encoding: 94 94 91
Width: 617
Flags: W
LayerCount: 2
Fore
SplineSet
344 735 m 1
 478 390 l 1
 414 390 l 1
 308 658 l 1
 204 390 l 1
 139 390 l 1
 274 735 l 1
 344 735 l 1
EndSplineSet
Validated: 1
EndChar

StartChar: grave
Encoding: 96 96 92
Width: 617
Flags: W
HStem: 560 175
VStem: 150 188
LayerCount: 2
Fore
SplineSet
150 715 m 0
 150 726 160 735 168 735 c 0
 169 735 l 0
 190 735 221 708 221 708 c 1
 281 652 336 600 338 566 c 1
 338 561 337 560 336 560 c 0
 335 560 l 0
 333 560 l 0
 299 560 238 610 179 665 c 1
 179 665 151 694 150 715 c 0
EndSplineSet
Validated: 1
EndChar

StartChar: bar
Encoding: 124 124 93
Width: 617
VWidth: 0
Flags: W
VStem: 279 60<-75 735>
LayerCount: 2
Fore
SplineSet
279 735 m 1
 339 735 l 1
 339 -75 l 1
 279 -75 l 1
 279 735 l 1
EndSplineSet
Validated: 1
EndChar

StartChar: asciitilde
Encoding: 126 126 94
Width: 617
Flags: W
HStem: 255 60<354.434 449.944> 345 60<168.325 263.402>
VStem: 94 61<298 331.68> 462 61<327.099 360>
LayerCount: 2
Fore
SplineSet
94 298 m 1
 99 333 119 405 216 405 c 0
 348 405 332 315 402 315 c 0
 443 315 458 344 462 360 c 1
 523 360 l 1
 519 326 500 255 402 255 c 0
 270 255 286 345 215 345 c 0
 173 345 159 314 155 298 c 1
 94 298 l 1
EndSplineSet
Validated: 1
EndChar

StartChar: exclamdown
Encoding: 161 161 96
Width: 617
Flags: W
HStem: 425 150<260.177 356.277>
VStem: 234 149<451.723 548.277> 279 60<-235 235>
LayerCount: 2
Fore
SplineSet
308 575 m 0xc0
 344 575 383 536 383 500 c 0
 383 464 344 425 308 425 c 0
 272 425 234 464 234 500 c 0
 234 536 272 575 308 575 c 0xc0
279 235 m 1xa0
 339 235 l 1
 339 -235 l 1
 279 -235 l 1
 279 235 l 1xa0
EndSplineSet
Validated: 1
EndChar

StartChar: cent
Encoding: 162 162 97
Width: 617
Flags: W
HStem: 139 60<339 427.143> 549 60<339 427.143>
VStem: 93 60<280.493 467.507> 279 60<15 139 199 549 609 735> 463 61<232.285 269 479 515.428>
LayerCount: 2
Fore
SplineSet
279 735 m 1
 339 735 l 1
 339 609 l 1
 353 608 l 0
 434 605 517 587 524 479 c 1
 463 479 l 1
 453 532 396 544 355 548 c 0
 339 549 l 1
 339 199 l 1
 355 200 l 0
 396 204 453 217 463 269 c 1
 524 269 l 1
 517 160 434 143 353 140 c 0
 339 139 l 1
 339 15 l 1
 279 15 l 1
 279 140 l 1
 266 142 l 0
 160 159 93 238 93 374 c 0
 93 510 160 589 266 606 c 0
 279 608 l 1
 279 735 l 1
259 542 m 2
 189 519 153 451 153 374 c 0
 153 297 189 229 259 206 c 0
 279 199 l 1
 279 549 l 1
 259 542 l 2
EndSplineSet
Validated: 1
EndChar

StartChar: sterling
Encoding: 163 163 98
Width: 617
Flags: W
HStem: 15 60<177 524> 300 60<177 387> 675 60<231.344 447.098>
VStem: 117 60<75 300 360 623.008>
LayerCount: 2
Fore
SplineSet
117 88 m 1
 117 545 l 0
 117 586 129 735 333 735 c 0
 399 735 461 711 518 683 c 1
 493 635 l 1
 451 656 408 675 333 675 c 0
 256 675 177 653 177 545 c 0
 177 360 l 1
 387 360 l 1
 387 300 l 1
 177 300 l 1
 177 75 l 1
 524 75 l 1
 524 15 l 1
 98 15 l 1
 117 88 l 1
EndSplineSet
Validated: 1
EndChar

StartChar: Euro
Encoding: 8364 8364 99
Width: 617
Flags: W
HStem: 15 60<235.074 426.186> 265 60<159 387> 425 60<159 387> 675 60<235.074 429.207>
VStem: 93 60<250.125 265 325 425 485 499.875> 463 61<106.839 145 605 642.901>
LayerCount: 2
Fore
SplineSet
524 145 m 1
 515 15 398 15 308 15 c 0
 179 15 93 93 93 375 c 0
 93 657 179 735 308 735 c 0
 398 735 515 734 524 605 c 1
 463 605 l 1
 450 672 367 675 323 675 c 0
 318 675 314 675 310 675 c 0
 308 675 l 0
 229 675 179 623 161 502 c 0
 159 485 l 1
 387 485 l 1
 387 425 l 1
 153 425 l 1
 153 325 l 1
 387 325 l 1
 387 265 l 1
 159 265 l 1
 161 248 l 0
 179 127 229 75 308 75 c 0
 310 75 l 0
 313 75 316 75 320 75 c 0
 364 75 450 78 463 145 c 1
 524 145 l 1
EndSplineSet
Validated: 1
EndChar

StartChar: yen
Encoding: 165 165 100
Width: 617
Flags: W
HStem: 175 60<132 279 339 485> 300 60<132 279 339 485>
VStem: 279 60<15 175 235 300>
LayerCount: 2
Fore
SplineSet
339 300 m 1
 339 235 l 1
 485 235 l 1
 485 175 l 1
 339 175 l 1
 339 15 l 1
 279 15 l 1
 279 175 l 1
 132 175 l 1
 132 235 l 1
 279 235 l 1
 279 300 l 1
 132 300 l 1
 132 360 l 1
 288 360 l 1
 102 735 l 1
 169 735 l 1
 308 452 l 1
 447 735 l 1
 515 735 l 1
 330 360 l 1
 485 360 l 1
 485 300 l 1
 339 300 l 1
EndSplineSet
Validated: 1
EndChar

StartChar: section
Encoding: 167 167 102
Width: 617
Flags: W
HStem: -235 60<182.668 428.973> 73 58<180.871 427.117> 367 60<189.653 436.669> 675 60<187.298 433.648>
VStem: 93 60<-144.146 -85 158.96 332.393 457.381 641.226> 464 60<-140.058 42.0866 167.367 337.694 585 647.798>
LayerCount: 2
Fore
SplineSet
308 367 m 0
 219 367 153 364 153 250 c 0
 153 138 187 131 308 131 c 0
 312 131 l 0
 400 131 464 137 464 250 c 0
 464 360 429 367 308 367 c 0
475 103 m 2
 505 79 524 35 524 -62 c 0
 524 -231 455 -235 326 -235 c 0
 320 -235 314 -235 308 -235 c 0
 174 -235 99 -207 93 -85 c 1
 153 -85 l 1
 158 -167 210 -175 274 -175 c 0
 308 -175 l 0
 396 -175 464 -172 464 -62 c 0
 464 65 430 73 308 73 c 0
 302 73 297 73 291 73 c 0
 162 73 93 77 93 250 c 0
 93 324 106 366 128 390 c 0
 137 400 l 1
 128 410 l 0
 106 436 93 480 93 562 c 0
 93 731 161 735 290 735 c 0
 296 735 302 735 308 735 c 0
 442 735 518 706 524 585 c 1
 464 585 l 1
 459 667 408 675 344 675 c 0
 308 675 l 0
 219 675 153 672 153 562 c 0
 153 435 186 427 308 427 c 0
 314 427 319 427 325 427 c 0
 454 427 524 423 524 250 c 0
 524 190 503 151 474 126 c 0
 461 114 l 1
 475 103 l 2
EndSplineSet
Validated: 1
EndChar

StartChar: copyright
Encoding: 169 169 104
Width: 617
Flags: W
HStem: 15 54<203.334 412.637> 157 29<250.049 383.819> 431 30<250.436 384.249> 549 53<203.157 412.615>
VStem: 15 54<213.096 406.024> 157 43<226.871 389.821> 406 43<201.447 234 384 416.384> 549 53<211.338 404.539>
LayerCount: 2
Fore
SplineSet
602 308 m 0
 602 299 597 15 308 15 c 0
 17 15 15 303 15 308 c 0
 15 314 17 602 308 602 c 0
 598 602 602 316 602 308 c 0
308 549 m 0
 69 549 69 308 69 308 c 0
 69 308 70 69 308 69 c 0
 547 69 549 308 549 308 c 1
 549 309 546 549 308 549 c 0
449 234 m 1
 441 158 370 157 311 157 c 0
 308 157 l 0
 200 157 157 207 157 308 c 0
 157 410 201 461 308 461 c 0
 311 461 l 0
 371 461 441 459 449 384 c 1
 406 384 l 1
 396 428 351 431 321 431 c 0
 316 431 312 431 308 431 c 0
 224 431 200 371 200 308 c 0
 200 245 225 186 308 186 c 0
 310 186 312 186 315 186 c 0
 347 186 396 188 406 234 c 1
 449 234 l 1
EndSplineSet
Validated: 1
EndChar

StartChar: ordfeminine
Encoding: 170 170 105
Width: 617
Flags: W
HStem: 220 60<132 485> 390 37<197.501 441> 545 36<200.018 441> 697 38<205.25 397.172>
VStem: 132 45<443.599 527.058> 441 44<427 545 581 661.188>
LayerCount: 2
Fore
SplineSet
132 280 m 1
 485 280 l 1
 485 220 l 1
 132 220 l 1
 132 280 l 1
177 486 m 0
 177 429 241 427 293 427 c 0
 298 427 303 427 308 427 c 0
 441 427 l 1
 441 545 l 1
 308 545 l 0
 303 545 298 545 292 545 c 0
 247 545 177 542 177 486 c 0
177 667 m 1
 159 698 l 1
 206 719 255 735 308 735 c 0
 475 735 485 624 485 596 c 0
 485 390 l 1
 308 390 l 0
 191 390 132 416 132 486 c 0
 132 566 189 581 308 581 c 0
 441 581 l 1
 441 596 l 0
 441 681 370 697 308 697 c 0
 247 697 210 681 177 667 c 1
EndSplineSet
Validated: 1
EndChar

StartChar: guillemotleft
Encoding: 171 171 106
Width: 617
Flags: W
LayerCount: 2
Fore
SplineSet
323 292 m 1
 323 368 l 1
 524 547 l 1
 524 483 l 1
 396 330 l 1
 524 177 l 1
 524 113 l 1
 323 292 l 1
93 292 m 1
 93 368 l 1
 293 547 l 1
 293 483 l 1
 167 330 l 1
 293 177 l 1
 293 113 l 1
 93 292 l 1
EndSplineSet
Validated: 1
EndChar

StartChar: logicalnot
Encoding: 172 172 107
Width: 617
Flags: W
HStem: 300 60<93 464>
VStem: 464 60<140 300>
LayerCount: 2
Fore
SplineSet
93 360 m 1
 524 360 l 1
 524 140 l 1
 464 140 l 1
 464 300 l 1
 93 300 l 1
 93 360 l 1
EndSplineSet
Validated: 1
EndChar

StartChar: uni00AD
Encoding: 173 173 108
Width: 617
Flags: W
HStem: 300 60<132 485>
LayerCount: 2
Fore
SplineSet
132 360 m 1
 485 360 l 1
 485 300 l 1
 132 300 l 1
 132 360 l 1
EndSplineSet
Validated: 1
EndChar

StartChar: registered
Encoding: 174 174 109
Width: 617
Flags: W
HStem: 15 54<203.334 412.637> 296 25<205 300 321 372.114> 443 18<205 363.306> 549 53<203.157 412.615>
VStem: 15 54<213.096 406.024> 181 24<157 296 321 443> 411 25<352.619 411.213> 549 53<211.338 404.539>
LayerCount: 2
Fore
SplineSet
181 461 m 1
 308 461 l 0
 436 461 436 383 436 382 c 1
 435 333 363 300 350 299 c 1
 321 299 l 1
 422 157 l 1
 398 157 l 1
 300 296 l 1
 205 296 l 1
 205 157 l 1
 181 157 l 1
 181 461 l 1
205 321 m 1
 308 321 l 0
 404 321 411 375 411 382 c 1
 411 390 403 443 308 443 c 0
 205 443 l 1
 205 321 l 1
602 308 m 0
 602 299 597 15 308 15 c 0
 17 15 15 303 15 308 c 0
 15 314 17 602 308 602 c 0
 598 602 602 316 602 308 c 0
308 549 m 0
 69 549 69 308 69 308 c 0
 69 308 70 69 308 69 c 0
 547 69 549 308 549 308 c 1
 549 309 546 549 308 549 c 0
EndSplineSet
Validated: 1
EndChar

StartChar: macron
Encoding: 175 175 110
Width: 617
Flags: W
HStem: 543 59<132 487>
LayerCount: 2
Fore
SplineSet
132 602 m 1
 487 602 l 1
 487 543 l 1
 132 543 l 1
 132 602 l 1
EndSplineSet
Validated: 1
EndChar

StartChar: degree
Encoding: 176 176 111
Width: 617
Flags: W
HStem: 390 53<242.312 377.735> 682 53<242.312 374.479>
VStem: 132 60<492.105 634.828> 425 60<492.105 632.015>
LayerCount: 2
Fore
SplineSet
485 562 m 0
 485 391 313 390 308 390 c 0
 303 390 132 391 132 562 c 0
 132 733 303 735 308 735 c 1
 314 735 485 733 485 562 c 0
308 682 m 2
 307 682 192 680 192 562 c 0
 192 444 308 443 308 443 c 0
 309 443 425 444 425 562 c 0
 425 680 308 682 308 682 c 2
EndSplineSet
Validated: 1
EndChar

StartChar: plusminus
Encoding: 177 177 112
Width: 617
Flags: W
HStem: 165 60<93 524> 483 60<93 279 339 524>
VStem: 279 60<345 483 543 681>
LayerCount: 2
Fore
SplineSet
93 225 m 1
 524 225 l 1
 524 165 l 1
 93 165 l 1
 93 225 l 1
524 543 m 1
 524 483 l 1
 339 483 l 1
 339 345 l 1
 279 345 l 1
 279 483 l 1
 93 483 l 1
 93 543 l 1
 279 543 l 1
 279 681 l 1
 339 681 l 1
 339 543 l 1
 524 543 l 1
EndSplineSet
Validated: 1
EndChar

StartChar: uni00B2
Encoding: 178 178 113
Width: 617
VWidth: 0
Flags: W
HStem: 390 33<256 434> 691 44<237.545 378.911>
VStem: 183 44<640 678.465> 390 44<578.019 679.138>
LayerCount: 2
Fore
SplineSet
256 423 m 1
 434 423 l 1
 434 390 l 1
 183 390 l 1
 183 430 l 1
 217 451 390 554 390 625 c 0
 390 666 379 691 308 691 c 0
 249 691 229 673 227 640 c 1
 183 640 l 1
 184 691 188 735 308 735 c 0
 430 735 434 683 434 634 c 0
 434 631 434 628 434 625 c 0
 434 561 293 451 292 450 c 0
 256 423 l 1
EndSplineSet
Validated: 1
EndChar

StartChar: uni00B3
Encoding: 179 179 114
Width: 617
Flags: W
HStem: 390 44<234.621 381.847> 558 33<323 363.802> 691 44<250.47 367.529>
VStem: 184 44<440.458 471> 377 44<600.888 682.458> 390 44<441.969 539.166>
LayerCount: 2
Fore
SplineSet
434 486 m 0xf4
 434 418 391 390 308 390 c 0
 232 390 190 419 184 471 c 1
 228 471 l 1
 234 435 263 434 302 434 c 0
 304 434 306 434 308 434 c 0
 360 434 390 437 390 486 c 0xf4
 390 532 371 555 323 558 c 1
 323 591 l 1
 362 594 377 614 377 650 c 0
 377 660 376 671 368 679 c 0
 358 690 345 691 329 691 c 0
 323 691 315 691 308 691 c 0
 300 691 293 691 287 691 c 0
 272 691 260 690 250 680 c 0
 246 676 243 670 242 665 c 1
 198 665 l 1
 204 707 235 735 308 735 c 0
 389 735 421 700 421 650 c 0xf8
 421 615 401 603 383 585 c 0
 373 574 l 1
 383 563 l 0
 404 542 434 536 434 486 c 0xf4
EndSplineSet
Validated: 1
EndChar

StartChar: uni00B5
Encoding: 181 181 116
Width: 617
Flags: W
HStem: 15 60<223.684 437.189>
VStem: 93 60<-234 70 148.868 485> 464 60<103.791 485>
LayerCount: 2
Fore
SplineSet
464 485 m 1
 524 485 l 1
 524 230 l 0
 524 210 524 191 524 175 c 0
 524 23 517 15 367 15 c 0
 349 15 330 15 308 15 c 0
 249 15 207 31 177 53 c 0
 153 70 l 1
 153 -234 l 1
 93 -234 l 1
 93 485 l 1
 153 485 l 1
 153 230 l 0
 153 230 153 75 308 75 c 0
 451 75 464 86 464 230 c 0
 464 485 l 1
EndSplineSet
Validated: 1
EndChar

StartChar: paragraph
Encoding: 182 182 117
Width: 617
Flags: W
HStem: 675 60<377 470>
VStem: 93 284<445.137 635.249> 323 54<15 345> 470 54<15 675>
LayerCount: 2
Fore
SplineSet
524 735 m 1xd0
 524 15 l 1
 470 15 l 1
 470 675 l 1
 377 675 l 1
 377 15 l 1
 323 15 l 1
 323 345 l 1xb0
 264 345 l 0
 95 345 93 535 93 540 c 0
 93 546 96 735 264 735 c 0
 524 735 l 1xd0
EndSplineSet
Validated: 1
EndChar

StartChar: periodcentered
Encoding: 183 183 118
Width: 617
Flags: W
HStem: 300 150<260.177 356.277>
VStem: 234 149<326.723 423.277>
LayerCount: 2
Fore
SplineSet
308 450 m 0
 344 450 383 411 383 375 c 0
 383 339 344 300 308 300 c 0
 272 300 234 339 234 375 c 0
 234 411 272 450 308 450 c 0
EndSplineSet
Validated: 1
EndChar

StartChar: uni00B9
Encoding: 185 185 120
Width: 617
VWidth: 0
Flags: W
VStem: 351 44<390 704>
LayerCount: 2
Fore
SplineSet
253 589 m 1
 201 589 l 1
 330 735 l 1
 395 735 l 1
 395 390 l 1
 351 390 l 1
 351 704 l 1
 253 589 l 1
EndSplineSet
Validated: 1
EndChar

StartChar: ordmasculine
Encoding: 186 186 121
Width: 617
VWidth: 0
Flags: W
HStem: 220 60<132 485> 390 53<242.312 377.735> 682 53<242.312 374.479>
VStem: 132 60<492.105 634.828> 425 60<492.105 632.015>
LayerCount: 2
Fore
SplineSet
132 280 m 1
 485 280 l 1
 485 220 l 1
 132 220 l 1
 132 280 l 1
485 562 m 0
 485 391 313 390 308 390 c 0
 303 390 132 391 132 562 c 0
 132 733 303 735 308 735 c 1
 314 735 485 733 485 562 c 0
308 682 m 2
 307 682 192 680 192 562 c 0
 192 444 308 443 308 443 c 0
 309 443 425 444 425 562 c 0
 425 680 308 682 308 682 c 2
EndSplineSet
Validated: 1
EndChar

StartChar: guillemotright
Encoding: 187 187 122
Width: 617
Flags: W
LayerCount: 2
Fore
SplineSet
293 292 m 1
 93 113 l 1
 93 177 l 1
 221 330 l 1
 93 483 l 1
 93 547 l 1
 293 368 l 1
 293 292 l 1
524 292 m 1
 323 113 l 1
 323 177 l 1
 452 330 l 1
 323 483 l 1
 323 547 l 1
 524 368 l 1
 524 292 l 1
EndSplineSet
Validated: 1
EndChar

StartChar: OE
Encoding: 338 338 123
Width: 557
Flags: W
HStem: 30 60<180.783 257.612 341 479> 345 60<341 434> 660 60<180.783 255.11 341 479>
VStem: 78 60<153.084 596.916> 291 50<161.889 345 405 588.546>
CounterMasks: 1 e0
LayerCount: 2
Fore
SplineSet
291 687 m 1
 291 720 l 1
 479 720 l 1
 479 660 l 1
 341 660 l 1
 341 405 l 1
 434 405 l 1
 434 345 l 1
 341 345 l 1
 341 90 l 1
 479 90 l 1
 479 30 l 1
 291 30 l 1
 291 51 l 1
 272 40 l 0
 255 30 238 30 219 30 c 0
 215 30 212 30 208 30 c 0
 152 30 78 40 78 375 c 0
 78 710 152 720 208 720 c 0
 212 720 215 720 219 720 c 0
 239 720 265 717 269 712 c 0
 291 687 l 1
291 375 m 0
 291 644 246 660 219 660 c 0
 189 660 138 644 138 375 c 0
 138 106 189 90 219 90 c 0
 253 90 291 107 291 375 c 0
EndSplineSet
Validated: 1
EndChar

StartChar: oe
Encoding: 339 339 124
Width: 557
Flags: W
HStem: 15 44<141.473 239.165 332.359 479> 222 56<304 435> 429 56<141.605 241.045 312.159 420.104>
VStem: 78 44<77.4547 410.328> 254 50<87.2276 222 278 419.855> 435 44<278 415.369>
LayerCount: 2
Fore
SplineSet
304 354 m 0
 304 278 l 1
 435 278 l 1
 435 293 l 0
 435 406 429 429 359 429 c 0
 315 429 304 411 304 354 c 0
254 250 m 0
 254 405 252 429 195 429 c 0
 135 429 122 407 122 250 c 0
 122 95 123 59 195 59 c 0
 253 59 254 96 254 250 c 0
479 222 m 1
 304 222 l 1
 304 202 l 0
 304 92 312 59 431 59 c 0
 479 59 l 1
 479 15 l 1
 366 16 317 26 292 34 c 0
 284 37 l 1
 279 30 l 0
 269 17 248 15 195 15 c 0
 181 15 169 15 158 15 c 0
 82 15 78 25 78 182 c 0
 78 202 78 225 78 250 c 0
 78 275 78 298 78 318 c 0
 78 475 82 485 158 485 c 0
 169 485 181 485 195 485 c 0
 237 485 261 469 282 469 c 0
 285 469 l 1
 288 471 l 0
 302 481 320 485 359 485 c 0
 373 485 385 485 396 485 c 0
 478 485 479 473 479 273 c 0
 479 266 479 258 479 250 c 0
 479 222 l 1
EndSplineSet
Validated: 1
EndChar

StartChar: questiondown
Encoding: 191 191 126
Width: 617
Flags: W
HStem: -233 60<187.298 427.073> 52 59<186.511 279> 427 150<260.177 356.277>
VStem: 93 60<-139.226 18.906> 234 149<453.723 550.277> 279 60<111 237> 464 60<-136.758 -75>
LayerCount: 2
Fore
SplineSet
308 427 m 0xfa
 272 427 234 466 234 502 c 0
 234 538 272 577 308 577 c 0
 344 577 383 538 383 502 c 0
 383 466 344 427 308 427 c 0xfa
279 111 m 1xf6
 279 237 l 1
 339 237 l 1
 339 52 l 1
 303 52 l 0
 217 52 153 48 153 -60 c 0
 153 -170 219 -173 308 -173 c 0
 392 -173 458 -171 464 -75 c 1
 524 -75 l 1
 519 -229 452 -233 327 -233 c 0
 321 -233 314 -233 308 -233 c 0
 302 -233 296 -233 290 -233 c 0
 161 -233 93 -229 93 -60 c 0
 93 98 153 109 264 111 c 0
 279 111 l 1xf6
EndSplineSet
Validated: 1
EndChar

StartChar: AE
Encoding: 198 198 133
Width: 557
Flags: W
HStem: 30 60<337 475> 220 60<203 287> 345 60<337 430> 660 60<337 475>
VStem: 287 50<90 220 280 345 405 660>
LayerCount: 2
Fore
SplineSet
287 220 m 1
 189 220 l 1
 139 15 l 1
 78 15 l 1
 244 720 l 1
 475 720 l 1
 475 660 l 1
 337 660 l 1
 337 405 l 1
 430 405 l 1
 430 345 l 1
 337 345 l 1
 337 90 l 1
 475 90 l 1
 475 30 l 1
 287 30 l 1
 287 220 l 1
203 280 m 1
 287 280 l 1
 287 688 l 1
 203 280 l 1
EndSplineSet
Validated: 1
EndChar

StartChar: Ccedilla
Encoding: 199 199 134
Width: 557
Flags: W
HStem: -250 32<198 329.462> -102 33<304 332.771> 17 73<304 384.743> 660 60<212.483 384.507>
VStem: 78 60<193.676 553.577> 254 50<-69 2> 348 41<-203.84 -114.851> 418 61<123.845 160 590 627.901>
LayerCount: 2
Fore
SplineSet
138 375 m 0
 138 171 189 90 278 90 c 2
 280 90 l 0
 283 90 285 90 288 90 c 0
 326 90 405 93 418 160 c 1
 479 160 l 1
 472 39 389 20 316 17 c 0
 304 17 l 1
 304 -69 l 1
 319 -69 l 0
 320 -69 321 -69 322 -69 c 0
 342 -69 389 -72 389 -159 c 0
 389 -248 341 -250 285 -250 c 0
 283 -250 280 -250 278 -250 c 0
 198 -250 l 1
 198 -218 l 1
 278 -218 l 0
 315 -218 348 -204 348 -159 c 0
 348 -115 319 -102 278 -102 c 0
 254 -102 l 1
 254 2 l 1
 243 4 l 0
 148 20 78 108 78 360 c 0
 78 642 164 720 278 720 c 0
 354 720 470 719 479 590 c 1
 418 590 l 1
 405 657 329 660 291 660 c 0
 287 660 283 660 280 660 c 0
 278 660 l 0
 189 660 138 579 138 375 c 0
EndSplineSet
Validated: 1
EndChar

StartChar: Eth
Encoding: 208 208 143
Width: 557
VWidth: 975
Flags: W
HStem: 15 75<138 335.181> 345 60<138 304> 660 75<138 335.181>
VStem: 78 60<90 345 405 660> 419 60<215.36 534.234>
CounterMasks: 1 e0
LayerCount: 2
Fore
SplineSet
138 345 m 1
 138 90 l 1
 278 90 l 0
 415 90 419 340 419 372 c 0
 419 375 l 1
 419 375 419 376 419 377 c 0
 419 404 415 660 278 660 c 0
 138 660 l 1
 138 405 l 1
 304 405 l 1
 304 345 l 1
 138 345 l 1
78 15 m 1
 78 735 l 1
 278 735 l 0
 472 735 479 386 479 375 c 1
 479 363 472 15 278 15 c 0
 78 15 l 1
EndSplineSet
Validated: 1
EndChar

StartChar: multiply
Encoding: 215 215 150
Width: 557
Flags: W
LayerCount: 2
Fore
SplineSet
305 455 m 1
 444 308 l 1
 400 266 l 1
 274 414 l 1
 145 266 l 1
 102 308 l 1
 240 455 l 1
 102 612 l 1
 144 654 l 1
 274 497 l 1
 401 654 l 1
 444 612 l 1
 305 455 l 1
EndSplineSet
Validated: 1
EndChar

StartChar: Oslash
Encoding: 216 216 151
Width: 557
Flags: W
HStem: 15 75<212.172 359.162> 660 75<196.945 345.766>
VStem: 78 60<201.933 577.14> 370 63<716.655 735> 419 60<177.657 547.805>
LayerCount: 2
Fore
SplineSet
199 45 m 1xe8
 188 15 l 1
 124 15 l 1
 154 90 l 1
 149 97 l 0
 109 152 78 241 78 375 c 0
 78 725 150 735 258 735 c 0
 264 735 271 735 278 735 c 0
 299 735 322 728 346 713 c 0
 360 704 l 1
 370 735 l 1
 433 735 l 1xf0
 404 659 l 1
 409 652 l 0
 449 597 479 509 479 375 c 0
 479 25 406 15 298 15 c 0
 292 15 285 15 278 15 c 0
 257 15 236 22 212 37 c 0
 199 45 l 1xe8
331 656 m 0
 319 660 307 660 294 660 c 0
 289 660 283 660 278 660 c 0
 195 660 138 647 138 360 c 0
 138 265 144 201 154 157 c 0
 166 109 l 1
 346 652 l 1
 331 656 l 0
402 593 m 0
 390 641 l 1
 211 98 l 1
 226 94 l 0
 243 90 260 90 278 90 c 0
 361 90 419 103 419 390 c 0xe8
 419 485 412 549 402 593 c 0
EndSplineSet
Validated: 1
EndChar

StartChar: Thorn
Encoding: 222 222 157
Width: 557
VWidth: 975
Flags: W
HStem: 266 60<138 356.929> 585 60<138 356.929>
VStem: 78 60<15 266 326 585 645 735> 419 60<387.142 523.253>
LayerCount: 2
Fore
SplineSet
278 645 m 0
 475 645 479 462 479 455 c 0
 479 447 475 266 278 266 c 0
 138 266 l 1
 138 15 l 1
 78 15 l 1
 78 735 l 1
 138 735 l 1
 138 645 l 1
 278 645 l 0
278 585 m 0
 138 585 l 1
 138 326 l 1
 278 326 l 0
 415 326 419 453 419 455 c 1
 419 458 415 585 278 585 c 0
EndSplineSet
Validated: 1
EndChar

StartChar: germandbls
Encoding: 223 223 158
Width: 557
Flags: W
HStem: 30 60<292 358.189> 383 61<292 348.156> 690 60<209.736 348.461>
VStem: 100 60<30 639.019> 397 59<492.755 639.827> 419 60<151.292 323.353>
LayerCount: 2
Fore
SplineSet
292 30 m 1xf4
 292 90 l 1
 366 95 419 145 419 237 c 0xf4
 419 330 365 378 292 383 c 1
 292 444 l 1
 349 450 397 494 397 567 c 0
 397 646 342 690 280 690 c 0
 217 690 160 646 160 567 c 0
 160 30 l 1
 100 30 l 1
 100 567 l 0
 100 680 160 750 280 750 c 0
 396 750 456 680 456 567 c 0xf8
 456 488 420 454 393 423 c 0
 384 413 l 1
 393 403 l 0
 423 368 479 349 479 237 c 0
 479 129 400 37 292 30 c 1xf4
EndSplineSet
Validated: 1
EndChar

StartChar: ae
Encoding: 230 230 165
Width: 557
Flags: W
HStem: 15 44<140.172 254 330.341 479> 222 56<140.584 254 304 435> 429 56<120.159 244.821 312.928 420.104>
VStem: 78 44<75.6137 202.891> 254 50<86.5018 222 278 421.051> 435 44<278 415.369>
LayerCount: 2
Fore
SplineSet
200 278 m 0
 254 278 l 1
 254 340 l 0
 254 399 249 429 200 429 c 0
 162 429 136 420 104 397 c 1
 82 435 l 1
 115 463 137 485 200 485 c 0
 228 485 242 476 257 459 c 0
 269 446 l 1
 277 463 l 0
 286 483 301 485 359 485 c 0
 373 485 385 485 396 485 c 0
 478 485 479 473 479 273 c 0
 479 266 479 258 479 250 c 0
 479 222 l 1
 304 222 l 1
 304 202 l 0
 304 90 313 59 431 59 c 0
 479 59 l 1
 479 15 l 1
 200 15 l 0
 96 15 78 33 78 140 c 0
 78 261 97 278 200 278 c 0
200 222 m 0
 155 222 122 205 122 140 c 0
 122 74 155 59 200 59 c 0
 254 59 l 1
 254 222 l 1
 200 222 l 0
304 354 m 0
 304 278 l 1
 435 278 l 1
 435 293 l 0
 435 406 429 429 359 429 c 0
 315 429 304 411 304 354 c 0
EndSplineSet
Validated: 1
EndChar

StartChar: ccedilla
Encoding: 231 231 166
Width: 557
Flags: W
HStem: -250 32<198 329.462> -102 33<304 332.771> 17 73<304 384.743> 410 60<206.613 384.507>
VStem: 78 60<162.844 337.562> 254 50<-69 1> 348 41<-203.84 -114.851> 418 61<123.845 160 340 377.901>
LayerCount: 2
Fore
SplineSet
138 250 m 0
 138 163 193 90 278 90 c 2
 280 90 l 0
 283 90 285 90 288 90 c 0
 326 90 405 93 418 160 c 1
 479 160 l 1
 472 39 389 20 316 17 c 0
 304 17 l 1
 304 -69 l 1
 319 -69 l 0
 320 -69 321 -69 322 -69 c 0
 342 -69 389 -72 389 -159 c 0
 389 -248 341 -250 285 -250 c 0
 283 -250 280 -250 278 -250 c 0
 198 -250 l 1
 198 -218 l 1
 278 -218 l 0
 315 -218 348 -204 348 -159 c 0
 348 -115 319 -102 278 -102 c 0
 254 -102 l 1
 254 1 l 1
 243 3 l 0
 145 20 78 99 78 235 c 0
 78 388 161 470 278 470 c 0
 354 470 470 469 479 340 c 1
 418 340 l 1
 405 407 329 410 291 410 c 0
 287 410 283 410 280 410 c 0
 278 410 l 0
 193 410 138 337 138 250 c 0
EndSplineSet
Validated: 1
EndChar

StartChar: eth
Encoding: 240 240 175
Width: 557
Flags: W
HStem: 30 60<202.425 353.353> 405 60<202.425 353.69>
VStem: 78 60<157.194 337.032> 419 60<157.825 336.47 393 511.212>
LayerCount: 2
Fore
SplineSet
419 393 m 1
 419 429 l 2
 419 522 373 589 329 634 c 0
 322 641 l 1
 217 569 l 1
 217 623 l 1
 290 671 l 1
 270 684 l 0
 252 696 235 704 224 709 c 1
 246 747 l 1
 260 740 287 725 318 699 c 0
 324 693 l 1
 413 744 l 1
 431 707 l 1
 355 662 l 1
 368 648 l 0
 426 590 479 505 479 390 c 0
 479 247 l 0
 479 126 394 30 278 30 c 0
 161 30 78 113 78 247 c 0
 78 381 161 465 278 465 c 0
 322 465 373 438 393 418 c 0
 419 393 l 1
138 247 m 0
 138 150 195 90 278 90 c 0
 360 90 419 150 419 247 c 0
 419 344 361 405 278 405 c 0
 195 405 138 344 138 247 c 0
EndSplineSet
Validated: 1
EndChar

StartChar: divide
Encoding: 247 247 182
Width: 557
Flags: W
HStem: 235 93<241.062 315.916> 425 60<78 479> 566 94<240.084 314.938>
VStem: 239 79<236.475 326.611 567.614 658.386>
LayerCount: 2
Fore
SplineSet
239 281 m 0
 239 320 246 328 278 328 c 0
 311 328 318 320 318 281 c 0
 318 243 311 235 278 235 c 0
 245 235 239 242 239 281 c 0
238 613 m 0
 238 652 245 660 278 660 c 0
 310 660 317 652 317 613 c 0
 317 574 310 566 278 566 c 0
 245 566 238 574 238 613 c 0
78 425 m 1
 78 485 l 1
 479 485 l 1
 479 425 l 1
 78 425 l 1
EndSplineSet
Validated: 1
EndChar

StartChar: oslash
Encoding: 248 248 183
Width: 557
Flags: W
HStem: 5 85<249 372.688> 410 85<183.597 308>
VStem: 78 60<107.753 357.094> 419 60<144.637 392.247>
LayerCount: 2
Fore
SplineSet
308 410 m 1
 278 410 l 2
 200 410 138 402 138 235 c 0
 138 153 149 106 182 81 c 0
 198 69 l 1
 308 410 l 1
396 481 m 0
 445 462 479 409 479 250 c 0
 479 11 409 5 297 5 c 0
 291 5 284 5 278 5 c 0
 229 5 l 1
 188 -125 l 1
 124 -125 l 1
 175 13 l 1
 161 19 l 0
 112 38 78 91 78 250 c 0
 78 489 147 495 259 495 c 0
 265 495 272 495 278 495 c 0
 327 495 l 1
 369 625 l 1
 433 625 l 1
 382 487 l 1
 396 481 l 0
359 431 m 1
 249 90 l 1
 278 90 l 0
 356 90 419 98 419 265 c 0
 419 347 408 394 375 419 c 0
 359 431 l 1
EndSplineSet
Validated: 1
EndChar

StartChar: thorn
Encoding: 254 254 189
Width: 557
VWidth: 0
Flags: W
HStem: 54 66<175.214 357.589> 380 66<175.338 357.379> 730 20G<78 138>
VStem: 78 60<-250 85 146.77 353.23 415 750> 419 60<180.695 319.269>
LayerCount: 2
Fore
SplineSet
278 54 m 0
 176 54 168 85 168 85 c 1
 138 85 l 1
 138 -250 l 1
 78 -250 l 1
 78 750 l 1
 138 750 l 1
 138 415 l 1
 168 415 l 1
 168 415 177 446 278 446 c 0
 475 446 479 257 479 250 c 1
 479 242 475 54 278 54 c 0
138 320 m 1
 138 180 l 2
 138 168 151 120 278 120 c 0
 416 120 419 248 419 250 c 1
 419 253 415 380 278 380 c 0
 151 380 138 332 138 320 c 1
EndSplineSet
Validated: 1
EndChar

StartChar: .notdef
Encoding: 65540 -1 191
Width: 617
Flags: W
HStem: 15 30<194 423> 621 30<194 423>
VStem: 134 60<45 621> 423 60<45 621>
LayerCount: 2
Fore
SplineSet
134 15 m 1
 134 651 l 1
 483 651 l 1
 483 15 l 1
 134 15 l 1
194 45 m 1
 423 45 l 1
 423 621 l 1
 194 621 l 1
 194 45 l 1
EndSplineSet
Validated: 1
EndChar

StartChar: dotlessi
Encoding: 305 305 192
Width: 557
Flags: W
HStem: 30 60<78 254 304 479> 410 60<123 254>
VStem: 254 50<90 410>
LayerCount: 2
Fore
SplineSet
123 410 m 1
 123 470 l 1
 304 470 l 1
 304 90 l 1
 479 90 l 1
 479 30 l 1
 78 30 l 1
 78 90 l 1
 254 90 l 1
 254 410 l 1
 123 410 l 1
EndSplineSet
Validated: 1
EndChar

StartChar: dieresis
Encoding: 168 168 193
Width: 617
Flags: W
HStem: 581 94<139.41 227.612 389.41 477.612>
VStem: 137 93<583.41 672.59> 387 93<583.41 672.59>
LayerCount: 2
Fore
SplineSet
434 675 m 0
 472 675 480 667 480 628 c 0
 480 589 472 581 434 581 c 0
 395 581 387 589 387 628 c 0
 387 667 395 675 434 675 c 0
184 675 m 0
 222 675 230 667 230 628 c 0
 230 589 222 581 184 581 c 0
 145 581 137 589 137 628 c 0
 137 667 145 675 184 675 c 0
EndSplineSet
Validated: 1
EndChar

StartChar: acute
Encoding: 180 180 194
Width: 617
Flags: W
HStem: 560 175
VStem: 279 188
LayerCount: 2
Fore
SplineSet
282 560 m 2
 281 560 l 0
 280 560 279 561 279 566 c 1
 281 601 337 653 396 708 c 1
 396 708 427 735 448 735 c 0
 449 735 l 0
 458 735 467 725 467 715 c 1
 466 693 438 665 438 665 c 1
 379 610 318 560 284 560 c 0
 282 560 l 2
EndSplineSet
Validated: 1
EndChar

StartChar: cedilla
Encoding: 184 184 195
Width: 617
Flags: W
HStem: -235 32<213 370.141> -87 33<339 373.068>
VStem: 279 60<-54 75> 391 43<-186.553 -100.704>
LayerCount: 2
Fore
SplineSet
339 75 m 1
 339 -54 l 1
 357 -54 l 0
 358 -54 360 -54 361 -54 c 0
 384 -54 434 -57 434 -144 c 0
 434 -233 383 -235 317 -235 c 0
 314 -235 311 -235 308 -235 c 0
 213 -235 l 1
 213 -203 l 1
 308 -203 l 0
 352 -203 391 -189 391 -144 c 0
 391 -100 357 -87 308 -87 c 0
 279 -87 l 1
 279 75 l 1
 339 75 l 1
EndSplineSet
Validated: 1
EndChar

StartChar: uniE0A0
Encoding: 57504 57504 196
Width: 617
Flags: W
VStem: 102 131<-393 -5.94067 301 946> 432 67<279.509 615>
LayerCount: 2
Fore
SplineSet
233 -393 m 1
 102 -393 l 1
 102 -123 l 0
 102 -54 116 0 145 42 c 1
 165 71 196 100 240 129 c 0
 328 188 l 1
 365 212 393 241 409 275 c 0
 425 309 432 353 432 405 c 0
 432 615 l 1
 328 615 l 1
 466 779 l 1
 604 615 l 1
 499 615 l 1
 499 372 l 0
 499 297 489 242 470 205 c 0
 450 167 422 136 382 109 c 0
 338 79 l 0
 301 54 274 28 258 0 c 1
 240 -31 233 -73 233 -123 c 0
 233 -393 l 1
233 301 m 1
 102 216 l 1
 102 946 l 1
 233 946 l 1
 233 301 l 1
EndSplineSet
Validated: 1
EndChar

StartChar: uniE0A1
Encoding: 57505 57505 197
Width: 617
Flags: W
HStem: 315 48<188 393>
VStem: 128 60<363 817> 198 62<-266 -17.5333> 198 47<3.53333 151> 426 63<10.125 237> 442 47<-180 -32.125>
LayerCount: 2
Fore
SplineSet
393 363 m 1xc0
 393 315 l 1
 128 315 l 1
 128 817 l 1
 188 817 l 1
 188 363 l 1
 393 363 l 1xc0
426 237 m 1xc8
 489 237 l 1xc8
 489 -266 l 1
 416 -266 l 1
 245 151 l 1xd4
 260 -165 l 1
 260 -266 l 1
 198 -266 l 1xe0
 198 237 l 1
 269 237 l 1
 442 -180 l 1xd4
 426 158 l 1
 426 237 l 1xc8
EndSplineSet
Validated: 1
EndChar

StartChar: uniE0A2
Encoding: 57506 57506 198
Width: 617
Flags: W
HStem: -177 110<261 356> 293 80<251.655 366.345> 694 47<248.601 368.145>
VStem: 87 174<-67 149.283> 87 134<146.22 262.089> 158 49<373 649.686> 356 174<-67 148.694> 396 134<145.651 263.755> 410 50<373 649.686>
LayerCount: 2
Fore
SplineSet
154 -177 m 2xe1
 106 -177 87 -158 87 -109 c 0
 87 299 l 0xe9
 87 354 106 373 143 373 c 0
 158 373 l 1
 158 569 l 0
 158 620 173 661 203 694 c 0
 231 725 266 741 309 741 c 0
 352 741 387 725 415 694 c 0
 445 661 460 620 460 569 c 0
 460 373 l 1xe480
 475 373 l 0
 512 373 530 355 530 299 c 0
 530 -109 l 0
 530 -158 511 -177 463 -177 c 0
 154 -177 l 2xe1
309 694 m 0
 279 694 253 681 234 658 c 0
 215 635 207 605 207 569 c 0
 207 373 l 1
 410 373 l 1
 410 569 l 0xe480
 410 605 402 635 383 658 c 0
 364 681 339 694 309 694 c 0
356 -67 m 1xf2
 356 130 l 1xf2
 383 148 396 172 396 204 c 0
 396 228 388 250 371 267 c 0
 355 283 333 293 309 293 c 0
 285 293 263 283 247 267 c 0
 230 250 221 228 221 204 c 0xe9
 221 172 236 147 261 130 c 1
 261 -67 l 1
 356 -67 l 1xf2
EndSplineSet
Validated: 1
EndChar

StartChar: uniE0B0
Encoding: 57520 57520 199
Width: 617
Flags: W
LayerCount: 2
Fore
SplineSet
15 922 m 1
 597 274 l 1
 15 -375 l 1
 15 922 l 1
EndSplineSet
Validated: 1
EndChar

StartChar: uniE0B1
Encoding: 57521 57521 200
Width: 617
Flags: W
LayerCount: 2
Fore
SplineSet
-12 879 m 1
 22 914 l 1
 597 274 l 1
 23 -366 l 1
 -12 -331 l 1
 529 274 l 1
 -12 879 l 1
EndSplineSet
Validated: 1
EndChar

StartChar: uniE0B2
Encoding: 57522 57522 201
Width: 617
Flags: W
LayerCount: 2
Fore
SplineSet
601 -375 m 1
 20 274 l 1
 601 922 l 1
 601 -375 l 1
EndSplineSet
Validated: 1
EndChar

StartChar: uniE0B3
Encoding: 57523 57523 202
Width: 617
Flags: W
LayerCount: 2
Fore
SplineSet
88 274 m 1
 629 -331 l 1
 594 -366 l 1
 20 274 l 1
 595 914 l 1
 629 879 l 1
 88 274 l 1
EndSplineSet
Validated: 1
EndChar

StartChar: block
Encoding: 9608 9608 203
Width: 617
VWidth: 0
Flags: W
VStem: 15 587<-360 860>
LayerCount: 2
Fore
SplineSet
15 860 m 1
 602 860 l 1
 602 -360 l 1
 15 -360 l 1
 15 860 l 1
EndSplineSet
Validated: 1
EndChar

StartChar: brokenbar
Encoding: 166 166 204
Width: 617
VWidth: 0
Flags: W
VStem: 279 60<-75 225 435 735>
LayerCount: 2
Fore
SplineSet
279 735 m 1
 339 735 l 1
 339 435 l 1
 279 435 l 1
 279 735 l 1
339 225 m 1
 339 -75 l 1
 279 -75 l 1
 279 225 l 1
 339 225 l 1
EndSplineSet
Validated: 1
EndChar

StartChar: bullet
Encoding: 8226 8226 205
Width: 617
Flags: W
HStem: 162 335<222.625 393.875>
VStem: 141 335<242.91 416.567>
LayerCount: 2
Fore
SplineSet
308 497 m 0
 314 497 476 495 476 330 c 0
 476 164 313 162 308 162 c 1
 302 162 141 164 141 330 c 0
 141 495 303 497 308 497 c 0
EndSplineSet
Validated: 1
EndChar

StartChar: uni2219
Encoding: 8729 8729 206
Width: 617
Flags: W
HStem: 162 335<222.625 393.875>
VStem: 141 335<242.91 416.567>
LayerCount: 2
Fore
SplineSet
308 497 m 0
 314 497 476 495 476 330 c 0
 476 164 313 162 308 162 c 1
 302 162 141 164 141 330 c 0
 141 495 303 497 308 497 c 0
EndSplineSet
Validated: 1
EndChar

StartChar: endash
Encoding: 8211 8211 207
Width: 617
Flags: W
HStem: 300 60<93 524>
LayerCount: 2
Fore
SplineSet
93 360 m 1
 524 360 l 1
 524 300 l 1
 93 300 l 1
 93 360 l 1
EndSplineSet
Validated: 1
EndChar

StartChar: emdash
Encoding: 8212 8212 208
Width: 617
Flags: W
HStem: 300 60<15 602>
LayerCount: 2
Fore
SplineSet
15 360 m 1
 602 360 l 1
 602 300 l 1
 15 300 l 1
 15 360 l 1
EndSplineSet
Validated: 1
EndChar

StartChar: figuredash
Encoding: 8210 8210 209
Width: 617
Flags: W
HStem: 300 60<93 524>
LayerCount: 2
Fore
SplineSet
93 360 m 1
 524 360 l 1
 524 300 l 1
 93 300 l 1
 93 360 l 1
EndSplineSet
Validated: 1
EndChar

StartChar: afii00208
Encoding: 8213 8213 210
Width: 617
Flags: W
HStem: 300 60<15 602>
LayerCount: 2
Fore
SplineSet
15 360 m 1
 602 360 l 1
 602 300 l 1
 15 300 l 1
 15 360 l 1
EndSplineSet
Validated: 1
EndChar

StartChar: uni2011
Encoding: 8209 8209 211
Width: 617
Flags: W
HStem: 300 60<93 524>
LayerCount: 2
Fore
SplineSet
93 360 m 1
 524 360 l 1
 524 300 l 1
 93 300 l 1
 93 360 l 1
EndSplineSet
Validated: 1
EndChar

StartChar: uni2010
Encoding: 8208 8208 212
Width: 617
Flags: W
HStem: 300 60<93 524>
LayerCount: 2
Fore
SplineSet
93 360 m 1
 524 360 l 1
 524 300 l 1
 93 300 l 1
 93 360 l 1
EndSplineSet
Validated: 1
EndChar

StartChar: uni26A1
Encoding: 9889 9889 213
Width: 617
VWidth: 0
Flags: W
LayerCount: 2
Fore
SplineSet
323 285 m 1
 507 285 l 1
 164 -168 l 1
 293 215 l 1
 110 215 l 1
 453 667 l 1
 323 285 l 1
EndSplineSet
Validated: 1
EndChar

StartChar: H18533
Encoding: 9679 9679 214
Width: 617
Flags: W
HStem: 140 470<210.747 406.067>
VStem: 74 470<266.791 483.209>
LayerCount: 2
Fore
SplineSet
308 610 m 0
 314 610 544 608 544 375 c 0
 544 142 313 140 308 140 c 1
 302 140 74 142 74 375 c 0
 74 608 303 610 308 610 c 0
EndSplineSet
Validated: 1
EndChar

StartChar: uni25FE
Encoding: 9726 9726 215
Width: 617
VWidth: 0
Flags: W
HStem: 240 270<174 444>
VStem: 174 270<240 510>
LayerCount: 2
Fore
SplineSet
174 510 m 1
 444 510 l 1
 444 240 l 1
 174 240 l 1
 174 510 l 1
EndSplineSet
Validated: 1
EndChar

StartChar: uni25FC
Encoding: 9724 9724 216
Width: 617
VWidth: 0
Flags: W
HStem: 140 470<74 544>
VStem: 74 470<140 610>
LayerCount: 2
Fore
SplineSet
74 610 m 1
 544 610 l 1
 544 140 l 1
 74 140 l 1
 74 610 l 1
EndSplineSet
Validated: 1
EndChar

StartChar: filledbox
Encoding: 9632 9632 217
Width: 617
VWidth: 0
Flags: W
HStem: 15 587<15 602>
VStem: 15 587<15 602>
LayerCount: 2
Fore
SplineSet
15 602 m 1
 602 602 l 1
 602 15 l 1
 15 15 l 1
 15 602 l 1
EndSplineSet
Validated: 1
EndChar

StartChar: H22073
Encoding: 9633 9633 218
Width: 617
VWidth: 0
Flags: W
HStem: 15 30<45 572> 572 30<45 572>
VStem: 15 30<45 572> 572 30<45 572>
LayerCount: 2
Fore
SplineSet
45 572 m 1
 45 45 l 1
 572 45 l 1
 572 572 l 1
 45 572 l 1
15 602 m 1
 602 602 l 1
 602 15 l 1
 15 15 l 1
 15 602 l 1
EndSplineSet
Validated: 1
EndChar

StartChar: uni25FD
Encoding: 9725 9725 219
Width: 617
VWidth: 0
Flags: W
HStem: 215 10<159 459> 525 10<159 459>
VStem: 149 10<225 525> 459 10<225 525>
LayerCount: 2
Fore
SplineSet
159 525 m 1
 159 225 l 1
 459 225 l 1
 459 525 l 1
 159 525 l 1
149 535 m 1
 469 535 l 1
 469 215 l 1
 149 215 l 1
 149 535 l 1
EndSplineSet
Validated: 1
EndChar

StartChar: uni25FB
Encoding: 9723 9723 220
Width: 617
VWidth: 0
Flags: W
HStem: 140 30<104 514> 580 30<104 514>
VStem: 74 30<170 580> 514 30<170 580>
LayerCount: 2
Fore
SplineSet
104 580 m 1
 104 170 l 1
 514 170 l 1
 514 580 l 1
 104 580 l 1
74 610 m 1
 544 610 l 1
 544 140 l 1
 74 140 l 1
 74 610 l 1
EndSplineSet
Validated: 1
EndChar

StartChar: upblock
Encoding: 9600 9600 221
Width: 617
VWidth: 0
Flags: W
HStem: 390 470<15 602>
VStem: 15 587<390 860>
LayerCount: 2
Fore
SplineSet
15 860 m 1
 602 860 l 1
 602 390 l 1
 15 390 l 1
 15 860 l 1
EndSplineSet
Validated: 1
EndChar

StartChar: uni2581
Encoding: 9601 9601 222
Width: 617
VWidth: 0
Flags: W
HStem: -360 126<15 602>
LayerCount: 2
Fore
SplineSet
15 -234 m 1
 602 -234 l 1
 602 -360 l 1
 15 -360 l 1
 15 -234 l 1
EndSplineSet
Validated: 1
EndChar

StartChar: uni2582
Encoding: 9602 9602 223
Width: 617
VWidth: 0
Flags: W
HStem: -360 283<15 602>
LayerCount: 2
Fore
SplineSet
15 -77 m 1
 602 -77 l 1
 602 -360 l 1
 15 -360 l 1
 15 -77 l 1
EndSplineSet
Validated: 1
EndChar

StartChar: uni2583
Encoding: 9603 9603 224
Width: 617
VWidth: 0
Flags: W
HStem: -360 439<15 602>
LayerCount: 2
Fore
SplineSet
15 79 m 1
 602 79 l 1
 602 -360 l 1
 15 -360 l 1
 15 79 l 1
EndSplineSet
Validated: 1
EndChar

StartChar: dnblock
Encoding: 9604 9604 225
Width: 617
VWidth: 0
Flags: W
HStem: -360 595<15 602>
VStem: 15 587<-360 235>
LayerCount: 2
Fore
SplineSet
15 235 m 1
 602 235 l 1
 602 -360 l 1
 15 -360 l 1
 15 235 l 1
EndSplineSet
Validated: 1
EndChar

StartChar: uni2585
Encoding: 9605 9605 226
Width: 617
VWidth: 0
Flags: W
VStem: 15 587<-360 391>
LayerCount: 2
Fore
SplineSet
15 391 m 1
 602 391 l 1
 602 -360 l 1
 15 -360 l 1
 15 391 l 1
EndSplineSet
Validated: 1
EndChar

StartChar: uni2586
Encoding: 9606 9606 227
Width: 617
VWidth: 0
Flags: W
VStem: 15 587<-360 548>
LayerCount: 2
Fore
SplineSet
15 548 m 1
 602 548 l 1
 602 -360 l 1
 15 -360 l 1
 15 548 l 1
EndSplineSet
Validated: 1
EndChar

StartChar: uni2587
Encoding: 9607 9607 228
Width: 617
VWidth: 0
Flags: W
VStem: 15 587<-360 703>
LayerCount: 2
Fore
SplineSet
15 703 m 1
 602 703 l 1
 602 -360 l 1
 15 -360 l 1
 15 703 l 1
EndSplineSet
Validated: 1
EndChar

StartChar: uni25A3
Encoding: 9635 9635 229
Width: 617
VWidth: 0
Flags: W
HStem: 15 30<45 572> 174 270<174 444> 572 30<45 572>
VStem: 15 30<45 572> 174 270<174 444> 572 30<45 572>
LayerCount: 2
Fore
SplineSet
45 572 m 1
 45 45 l 1
 572 45 l 1
 572 572 l 1
 45 572 l 1
15 602 m 1
 602 602 l 1
 602 15 l 1
 15 15 l 1
 15 602 l 1
174 444 m 1
 444 444 l 1
 444 174 l 1
 174 174 l 1
 174 444 l 1
EndSplineSet
Validated: 1
EndChar

StartChar: uni2589
Encoding: 9609 9609 230
Width: 617
VWidth: 0
Flags: W
VStem: 15 510<-360 860>
LayerCount: 2
Fore
SplineSet
15 860 m 1
 525 860 l 1
 525 -360 l 1
 15 -360 l 1
 15 860 l 1
EndSplineSet
Validated: 1
EndChar

StartChar: uni258A
Encoding: 9610 9610 231
Width: 617
VWidth: 0
Flags: W
VStem: 15 433<-360 860>
LayerCount: 2
Fore
SplineSet
15 860 m 1
 448 860 l 1
 448 -360 l 1
 15 -360 l 1
 15 860 l 1
EndSplineSet
Validated: 1
EndChar

StartChar: uni258B
Encoding: 9611 9611 232
Width: 617
VWidth: 0
Flags: W
VStem: 15 356<-360 860>
LayerCount: 2
Fore
SplineSet
15 860 m 1
 371 860 l 1
 371 -360 l 1
 15 -360 l 1
 15 860 l 1
EndSplineSet
Validated: 1
EndChar

StartChar: lfblock
Encoding: 9612 9612 233
Width: 617
VWidth: 0
Flags: W
VStem: 15 279<-360 860>
LayerCount: 2
Fore
SplineSet
15 860 m 1
 294 860 l 1
 294 -360 l 1
 15 -360 l 1
 15 860 l 1
EndSplineSet
Validated: 1
EndChar

StartChar: uni258D
Encoding: 9613 9613 234
Width: 617
VWidth: 0
Flags: W
VStem: 15 201<-360 860>
LayerCount: 2
Fore
SplineSet
15 860 m 1
 216 860 l 1
 216 -360 l 1
 15 -360 l 1
 15 860 l 1
EndSplineSet
Validated: 1
EndChar

StartChar: uni258E
Encoding: 9614 9614 235
Width: 617
VWidth: 0
Flags: W
VStem: 15 124<-360 860>
LayerCount: 2
Fore
SplineSet
15 860 m 1
 139 860 l 1
 139 -360 l 1
 15 -360 l 1
 15 860 l 1
EndSplineSet
Validated: 1
EndChar

StartChar: uni258F
Encoding: 9615 9615 236
Width: 617
VWidth: 0
Flags: W
VStem: 15 47<-360 860>
LayerCount: 2
Fore
SplineSet
15 860 m 1
 62 860 l 1
 62 -360 l 1
 15 -360 l 1
 15 860 l 1
EndSplineSet
Validated: 1
EndChar

StartChar: rtblock
Encoding: 9616 9616 237
Width: 617
VWidth: 0
Flags: W
VStem: 323 279<-360 860>
LayerCount: 2
Fore
SplineSet
323 860 m 1
 602 860 l 1
 602 -360 l 1
 323 -360 l 1
 323 860 l 1
EndSplineSet
Validated: 1
EndChar

StartChar: H18543
Encoding: 9642 9642 238
Width: 617
VWidth: 0
Flags: W
HStem: 215 320<149 469>
VStem: 149 320<215 535>
LayerCount: 2
Fore
SplineSet
149 535 m 1
 469 535 l 1
 469 215 l 1
 149 215 l 1
 149 535 l 1
EndSplineSet
Validated: 1
EndChar

StartChar: H18551
Encoding: 9643 9643 239
Width: 617
VWidth: 0
Flags: W
HStem: 240 10<184 434> 500 10<184 434>
VStem: 174 10<250 500> 434 10<250 500>
LayerCount: 2
Fore
SplineSet
184 500 m 1
 184 250 l 1
 434 250 l 1
 434 500 l 1
 184 500 l 1
174 510 m 1
 444 510 l 1
 444 240 l 1
 174 240 l 1
 174 510 l 1
EndSplineSet
Validated: 1
EndChar

StartChar: triagup
Encoding: 9650 9650 240
Width: 617
VWidth: 0
Flags: W
LayerCount: 2
Fore
SplineSet
308 583 m 1
 593 15 l 1
 24 15 l 1
 308 583 l 1
EndSplineSet
Validated: 1
EndChar

StartChar: uni25B3
Encoding: 9651 9651 241
Width: 617
VWidth: 0
Flags: W
HStem: 15 30<73 544>
LayerCount: 2
Fore
SplineSet
308 514 m 1
 73 45 l 1
 544 45 l 1
 308 514 l 1
308 583 m 1
 593 15 l 1
 24 15 l 1
 308 583 l 1
EndSplineSet
Validated: 1
EndChar

StartChar: uni25B4
Encoding: 9652 9652 242
Width: 617
VWidth: 0
Flags: W
HStem: 215 301
VStem: 158 302
LayerCount: 2
Fore
SplineSet
308 516 m 1
 460 215 l 1
 158 215 l 1
 308 516 l 1
EndSplineSet
Validated: 1
EndChar

StartChar: uni25B5
Encoding: 9653 9653 243
Width: 617
VWidth: 0
Flags: W
HStem: 240 10<199 419>
VStem: 183 252
LayerCount: 2
Fore
SplineSet
308 469 m 1
 199 250 l 1
 419 250 l 1
 308 469 l 1
308 491 m 1
 435 240 l 1
 183 240 l 1
 308 491 l 1
EndSplineSet
Validated: 1
EndChar

StartChar: uni25B6
Encoding: 9654 9654 244
Width: 617
VWidth: 0
Flags: W
LayerCount: 2
Fore
SplineSet
583 375 m 1
 15 90 l 1
 15 659 l 1
 583 375 l 1
EndSplineSet
Validated: 1
EndChar

StartChar: uni25B7
Encoding: 9655 9655 245
Width: 617
VWidth: 0
Flags: W
VStem: 15 30<139 610>
LayerCount: 2
Fore
SplineSet
514 375 m 1
 45 610 l 1
 45 139 l 1
 514 375 l 1
583 375 m 1
 15 90 l 1
 15 659 l 1
 583 375 l 1
EndSplineSet
Validated: 1
EndChar

StartChar: uni25B8
Encoding: 9656 9656 246
Width: 617
VWidth: 0
Flags: W
HStem: 223 302
VStem: 149 301
LayerCount: 2
Fore
SplineSet
450 375 m 1
 149 223 l 1
 149 525 l 1
 450 375 l 1
EndSplineSet
Validated: 1
EndChar

StartChar: uni25B9
Encoding: 9657 9657 247
Width: 617
VWidth: 0
Flags: W
HStem: 248 252
VStem: 174 10<264 484>
LayerCount: 2
Fore
SplineSet
403 375 m 1
 184 484 l 1
 184 264 l 1
 403 375 l 1
425 375 m 1
 174 248 l 1
 174 500 l 1
 425 375 l 1
EndSplineSet
Validated: 1
EndChar

StartChar: uni25C0
Encoding: 9664 9664 248
Width: 617
VWidth: 0
Flags: W
LayerCount: 2
Fore
SplineSet
34 374 m 1
 602 659 l 1
 602 90 l 1
 34 374 l 1
EndSplineSet
Validated: 1
EndChar

StartChar: uni25C1
Encoding: 9665 9665 249
Width: 617
VWidth: 0
Flags: W
VStem: 572 30<139 610>
LayerCount: 2
Fore
SplineSet
103 374 m 1
 572 139 l 1
 572 610 l 1
 103 374 l 1
34 374 m 1
 602 659 l 1
 602 90 l 1
 34 374 l 1
EndSplineSet
Validated: 1
EndChar

StartChar: uni25C2
Encoding: 9666 9666 250
Width: 617
VWidth: 0
Flags: W
HStem: 223 302
VStem: 168 301
LayerCount: 2
Fore
SplineSet
168 373 m 1
 469 525 l 1
 469 223 l 1
 168 373 l 1
EndSplineSet
Validated: 1
EndChar

StartChar: uni25C3
Encoding: 9667 9667 251
Width: 617
VWidth: 0
Flags: W
HStem: 248 252
VStem: 434 10<264 484>
LayerCount: 2
Fore
SplineSet
215 373 m 1
 434 264 l 1
 434 484 l 1
 215 373 l 1
193 373 m 1
 444 500 l 1
 444 248 l 1
 193 373 l 1
EndSplineSet
Validated: 1
EndChar

StartChar: triagdn
Encoding: 9660 9660 252
Width: 617
VWidth: 0
Flags: W
LayerCount: 2
Fore
SplineSet
309 34 m 1
 24 602 l 1
 593 602 l 1
 309 34 l 1
EndSplineSet
Validated: 1
EndChar

StartChar: uni25BD
Encoding: 9661 9661 253
Width: 617
VWidth: 0
Flags: W
HStem: 572 30<73 544>
LayerCount: 2
Fore
SplineSet
309 103 m 1
 544 572 l 1
 73 572 l 1
 309 103 l 1
309 34 m 1
 24 602 l 1
 593 602 l 1
 309 34 l 1
EndSplineSet
Validated: 1
EndChar

StartChar: uni25BE
Encoding: 9662 9662 254
Width: 617
VWidth: 0
Flags: W
HStem: 234 301
VStem: 158 302
LayerCount: 2
Fore
SplineSet
310 234 m 1
 158 535 l 1
 460 535 l 1
 310 234 l 1
EndSplineSet
Validated: 1
EndChar

StartChar: uni25BF
Encoding: 9663 9663 255
Width: 617
VWidth: 0
Flags: W
HStem: 500 10<199 419>
VStem: 183 252
LayerCount: 2
Fore
SplineSet
310 281 m 1
 419 500 l 1
 199 500 l 1
 310 281 l 1
310 259 m 1
 183 510 l 1
 435 510 l 1
 310 259 l 1
EndSplineSet
Validated: 1
EndChar

StartChar: triagrt
Encoding: 9658 9658 256
Width: 617
VWidth: 0
Flags: W
HStem: 219 310
LayerCount: 2
Fore
SplineSet
562 375 m 1
 15 219 l 1
 15 529 l 1
 562 375 l 1
EndSplineSet
Validated: 1
EndChar

StartChar: uni25BB
Encoding: 9659 9659 257
Width: 617
VWidth: 0
Flags: W
HStem: 219 310
VStem: 15 30<259 489>
LayerCount: 2
Fore
SplineSet
455 375 m 1
 45 489 l 1
 45 259 l 1
 455 375 l 1
562 375 m 1
 15 219 l 1
 15 529 l 1
 562 375 l 1
EndSplineSet
Validated: 1
EndChar

StartChar: triaglf
Encoding: 9668 9668 258
Width: 617
VWidth: 0
Flags: W
HStem: 219 310
LayerCount: 2
Fore
SplineSet
55 373 m 1
 602 529 l 1
 602 219 l 1
 55 373 l 1
EndSplineSet
Validated: 1
EndChar

StartChar: uni25C5
Encoding: 9669 9669 259
Width: 617
VWidth: 0
Flags: W
HStem: 219 310
VStem: 572 30<259 489>
LayerCount: 2
Fore
SplineSet
162 373 m 1
 572 259 l 1
 572 489 l 1
 162 373 l 1
55 373 m 1
 602 529 l 1
 602 219 l 1
 55 373 l 1
EndSplineSet
Validated: 1
EndChar

StartChar: ellipsis
Encoding: 8230 8230 260
Width: 617
Flags: W
HStem: 15 150<41.1765 137.277 260.177 356.277 479.177 575.277>
VStem: 15 149<41.7233 138.277> 234 149<41.7233 138.277> 453 149<41.7233 138.277>
CounterMasks: 1 70
LayerCount: 2
Fore
SplineSet
89 165 m 0
 125 165 164 126 164 90 c 0
 164 54 125 15 89 15 c 0
 53 15 15 54 15 90 c 0
 15 126 53 165 89 165 c 0
527 165 m 0
 563 165 602 126 602 90 c 0
 602 54 563 15 527 15 c 0
 491 15 453 54 453 90 c 0
 453 126 491 165 527 165 c 0
308 165 m 0
 344 165 383 126 383 90 c 0
 383 54 344 15 308 15 c 0
 272 15 234 54 234 90 c 0
 234 126 272 165 308 165 c 0
EndSplineSet
Validated: 1
EndChar

StartChar: circumflex
Encoding: 710 710 261
Width: 617
Flags: W
HStem: 560 175
VStem: 146 325
LayerCount: 2
Fore
SplineSet
346 735 m 1
 471 560 l 1
 411 560 l 1
 308 691 l 1
 207 560 l 1
 146 560 l 1
 272 735 l 1
 346 735 l 1
EndSplineSet
Validated: 1
EndChar

StartChar: ring
Encoding: 730 730 262
Width: 617
VWidth: 0
Flags: W
HStem: 560 33<252.306 364.395> 703 32<254.194 362.776>
VStem: 199 32<615.518 681.921> 386 33<615.161 681.47>
LayerCount: 2
Fore
SplineSet
231 648 m 4
 231 643 237 593 308 593 c 4
 380 593 386 644 386 648 c 6
 386 649 l 6
 386 654 379 703 308 703 c 4
 236 703 231 652 231 648 c 4
308 560 m 4
 202 560 199 638 199 647 c 6
 199 648 l 6
 199 654 201 735 308 735 c 4
 416 735 419 654 419 648 c 4
 419 641 415 560 308 560 c 4
EndSplineSet
Validated: 1
EndChar

StartChar: caron
Encoding: 711 711 263
Width: 617
Flags: W
HStem: 560 175
VStem: 146 325
LayerCount: 2
Fore
SplineSet
346 560 m 1
 272 560 l 1
 146 735 l 1
 207 735 l 1
 308 604 l 1
 411 735 l 1
 471 735 l 1
 346 560 l 1
EndSplineSet
Validated: 1
EndChar
